<svg viewBox="0 0 375 361" fill="none" xmlns="http://www.w3.org/2000/svg">
<path d="M367 180.5C367 275.485 286.925 353 187.5 353C88.0753 353 8 275.485 8 180.5C8 85.515 88.0753 8 187.5 8C286.925 8 367 85.515 367 180.5Z" fill="#047857" stroke="black" stroke-width="16"/>
<mask id="path-2-outside-1_303_46" maskUnits="userSpaceOnUse" x="87" y="101" width="193" height="158" fill="black">
<rect fill="white" x="87" y="101" width="193" height="158"/>
<path d="M117.52 246.08C115.72 245.36 113.86 244.58 111.94 243.74C110.14 242.9 108.4 241.64 106.72 239.96C105.16 238.4 103.78 236.18 102.58 233.3C101.38 229.82 100.54 226.4 100.06 223.04C99.7 219.68 99.58 215.78 99.7 211.34C99.7 205.1 100.12 199.7 100.96 195.14C101.92 190.46 103.36 185.72 105.28 180.92C105.52 180.56 105.94 179.54 106.54 177.86C107.26 176.06 108.04 174.14 108.88 172.1C109.84 170.06 110.56 168.5 111.04 167.42C112 165.38 113.44 162.68 115.36 159.32C117.4 155.84 119.56 152.48 121.84 149.24C125.32 144.08 128.2 140 130.48 137C132.76 134 134.92 131.48 136.96 129.44C139 127.4 141.28 125.48 143.8 123.68C146.44 121.76 149.8 119.42 153.88 116.66C156.52 114.74 159.4 113.72 162.52 113.6C165.76 113.48 168.76 114.2 171.52 115.76C174.28 117.2 176.32 119.36 177.64 122.24C178.96 124.76 179.62 127.82 179.62 131.42C179.62 134.9 179.08 138.62 178 142.58C176.92 146.42 175.42 150.08 173.5 153.56C171.58 157.04 169.36 159.92 166.84 162.2C165.28 163.64 163.84 164.18 162.52 163.82C161.32 163.46 159.88 162.5 158.2 160.94C157.12 158.9 156.52 157.7 156.4 157.34C156.4 156.98 156.64 156.74 157.12 156.62C157.84 155.78 158.8 154.34 160 152.3C161.2 150.26 162.4 148.1 163.6 145.82C164.8 143.42 165.64 141.5 166.12 140.06C167.08 135.02 167.74 131.48 168.1 129.44C168.46 127.28 168.1 125.66 167.02 124.58C166.54 124.1 165.82 123.92 164.86 124.04C164.02 124.16 162.58 124.76 160.54 125.84C157.78 127.04 154.18 129.74 149.74 133.94C145.3 138.02 141.22 142.58 137.5 147.62C132.7 153.98 128.68 159.62 125.44 164.54C122.2 169.46 119.74 174.5 118.06 179.66C117.82 180.14 117.4 181.04 116.8 182.36C116.32 183.68 116.08 184.34 116.08 184.34C116.2 184.82 116.02 186.02 115.54 187.94C115.06 189.74 114.52 191.3 113.92 192.62C112.6 198.14 111.82 203.9 111.58 209.9C111.34 215.78 111.64 221 112.48 225.56C113.44 230.12 114.82 233.3 116.62 235.1C118.18 236.18 120.28 236.54 122.92 236.18C125.68 235.82 128.8 234.98 132.28 233.66C135.76 232.34 139.3 230.9 142.9 229.34C145.78 228.14 148.42 226.82 150.82 225.38C153.22 223.94 155.02 222.68 156.22 221.6C157.18 220.88 158.38 220.16 159.82 219.44C161.38 218.6 162.7 218.18 163.78 218.18C165.46 217.58 166.42 217.34 166.66 217.46C166.9 217.58 167.02 218.12 167.02 219.08C167.02 220.76 166.06 222.62 164.14 224.66C162.34 226.7 160 228.56 157.12 230.24C156.16 231.2 154.9 232.22 153.34 233.3C151.78 234.38 150.16 235.22 148.48 235.82C145.96 237.74 142.84 239.6 139.12 241.4C135.4 243.2 131.62 244.58 127.78 245.54C124.06 246.5 120.64 246.68 117.52 246.08ZM198.282 242.66C196.122 241.34 194.202 239.6 192.522 237.44C190.962 235.4 189.702 233.12 188.742 230.6C187.902 227.96 187.482 225.38 187.482 222.86C187.122 215.42 187.482 207.92 188.562 200.36C189.642 192.68 191.262 185.18 193.422 177.86C194.742 173.42 196.242 168.86 197.922 164.18C199.722 159.5 201.522 155.12 203.322 151.04C205.122 146.96 206.682 143.66 208.002 141.14C211.482 134.78 215.202 129.56 219.162 125.48C223.122 121.28 226.122 118.58 228.162 117.38C229.362 116.66 231.042 115.94 233.202 115.22C235.482 114.38 238.002 113.78 240.762 113.42C243.642 113.06 246.582 113.24 249.582 113.96C252.702 114.56 255.642 115.46 258.402 116.66C261.162 117.74 263.022 118.7 263.982 119.54C264.942 120.86 265.782 122.06 266.502 123.14C267.342 124.1 267.822 125.3 267.942 126.74C268.062 127.7 267.762 128.9 267.042 130.34C266.322 131.78 265.362 132.8 264.162 133.4C263.082 134 262.002 133.7 260.922 132.5C259.242 130.1 257.562 128.54 255.882 127.82C254.202 126.98 252.402 126.08 250.482 125.12C249.162 124.4 247.302 124.04 244.902 124.04C242.622 124.04 240.282 124.4 237.882 125.12C235.482 125.72 233.442 126.8 231.762 128.36C230.562 129.44 229.002 131.12 227.082 133.4C225.282 135.56 223.482 137.96 221.682 140.6C219.882 143.12 218.442 145.58 217.362 147.98C214.362 153.74 211.662 159.56 209.262 165.44C206.862 171.2 204.882 177.44 203.322 184.16C202.962 185.84 202.422 188.3 201.702 191.54C200.982 194.78 200.322 198.08 199.722 201.44C199.242 204.68 198.882 207.32 198.642 209.36C197.922 215.24 197.802 220.4 198.282 224.84C198.762 229.28 200.382 232.28 203.142 233.84C206.022 235.4 210.582 234.98 216.822 232.58C219.582 232.1 222.522 230.84 225.642 228.8C228.762 226.64 231.762 224 234.642 220.88C237.642 217.64 240.162 214.22 242.202 210.62C244.122 206.66 245.802 202.82 247.242 199.1C248.802 195.38 249.582 192.32 249.582 189.92C249.582 187.52 248.382 186.38 245.982 186.5C241.542 186.26 237.942 186.26 235.182 186.5C232.542 186.74 230.082 186.44 227.802 185.6C226.962 184.28 226.542 182.96 226.542 181.64C226.662 180.32 227.382 179 228.702 177.68C229.902 177.08 232.062 176.66 235.182 176.42C238.302 176.06 241.662 176 245.262 176.24C248.982 176.48 252.222 177.26 254.982 178.58C258.102 179.9 259.902 182.24 260.382 185.6C260.982 188.96 260.982 192.56 260.382 196.4C259.902 199.04 258.702 202.22 256.782 205.94C254.982 209.66 252.822 213.62 250.302 217.82C248.502 220.46 246.042 223.34 242.922 226.46C239.802 229.46 236.622 232.22 233.382 234.74C230.262 237.26 227.622 239 225.462 239.96C220.662 242.24 215.742 243.8 210.702 244.64C205.782 245.6 201.642 244.94 198.282 242.66Z"/>
</mask>
<path d="M117.52 246.08C115.72 245.36 113.86 244.58 111.94 243.74C110.14 242.9 108.4 241.64 106.72 239.96C105.16 238.4 103.78 236.18 102.58 233.3C101.38 229.82 100.54 226.4 100.06 223.04C99.7 219.68 99.58 215.78 99.7 211.34C99.7 205.1 100.12 199.7 100.96 195.14C101.92 190.46 103.36 185.72 105.28 180.92C105.52 180.56 105.94 179.54 106.54 177.86C107.26 176.06 108.04 174.14 108.88 172.1C109.84 170.06 110.56 168.5 111.04 167.42C112 165.38 113.44 162.68 115.36 159.32C117.4 155.84 119.56 152.48 121.84 149.24C125.32 144.08 128.2 140 130.48 137C132.76 134 134.92 131.48 136.96 129.44C139 127.4 141.28 125.48 143.8 123.68C146.44 121.76 149.8 119.42 153.88 116.66C156.52 114.74 159.4 113.72 162.52 113.6C165.76 113.48 168.76 114.2 171.52 115.76C174.28 117.2 176.32 119.36 177.64 122.24C178.96 124.76 179.62 127.82 179.62 131.42C179.62 134.9 179.08 138.62 178 142.58C176.92 146.42 175.42 150.08 173.5 153.56C171.58 157.04 169.36 159.92 166.84 162.2C165.28 163.64 163.84 164.18 162.52 163.82C161.32 163.46 159.88 162.5 158.2 160.94C157.12 158.9 156.52 157.7 156.4 157.34C156.4 156.98 156.64 156.74 157.12 156.62C157.84 155.78 158.8 154.34 160 152.3C161.2 150.26 162.4 148.1 163.6 145.82C164.8 143.42 165.64 141.5 166.12 140.06C167.08 135.02 167.74 131.48 168.1 129.44C168.46 127.28 168.1 125.66 167.02 124.58C166.54 124.1 165.82 123.92 164.86 124.04C164.02 124.16 162.58 124.76 160.54 125.84C157.78 127.04 154.18 129.74 149.74 133.94C145.3 138.02 141.22 142.58 137.5 147.62C132.7 153.98 128.68 159.62 125.44 164.54C122.2 169.46 119.74 174.5 118.06 179.66C117.82 180.14 117.4 181.04 116.8 182.36C116.32 183.68 116.08 184.34 116.08 184.34C116.2 184.82 116.02 186.02 115.54 187.94C115.06 189.74 114.52 191.3 113.92 192.62C112.6 198.14 111.82 203.9 111.58 209.9C111.34 215.78 111.64 221 112.48 225.56C113.44 230.12 114.82 233.3 116.62 235.1C118.18 236.18 120.28 236.54 122.92 236.18C125.68 235.82 128.8 234.98 132.28 233.66C135.76 232.34 139.3 230.9 142.9 229.34C145.78 228.14 148.42 226.82 150.82 225.38C153.22 223.94 155.02 222.68 156.22 221.6C157.18 220.88 158.38 220.16 159.82 219.44C161.38 218.6 162.7 218.18 163.78 218.18C165.46 217.58 166.42 217.34 166.66 217.46C166.9 217.58 167.02 218.12 167.02 219.08C167.02 220.76 166.06 222.62 164.14 224.66C162.34 226.7 160 228.56 157.12 230.24C156.16 231.2 154.9 232.22 153.34 233.3C151.78 234.38 150.16 235.22 148.48 235.82C145.96 237.74 142.84 239.6 139.12 241.4C135.4 243.2 131.62 244.58 127.78 245.54C124.06 246.5 120.64 246.68 117.52 246.08ZM198.282 242.66C196.122 241.34 194.202 239.6 192.522 237.44C190.962 235.4 189.702 233.12 188.742 230.6C187.902 227.96 187.482 225.38 187.482 222.86C187.122 215.42 187.482 207.92 188.562 200.36C189.642 192.68 191.262 185.18 193.422 177.86C194.742 173.42 196.242 168.86 197.922 164.18C199.722 159.5 201.522 155.12 203.322 151.04C205.122 146.96 206.682 143.66 208.002 141.14C211.482 134.78 215.202 129.56 219.162 125.48C223.122 121.28 226.122 118.58 228.162 117.38C229.362 116.66 231.042 115.94 233.202 115.22C235.482 114.38 238.002 113.78 240.762 113.42C243.642 113.06 246.582 113.24 249.582 113.96C252.702 114.56 255.642 115.46 258.402 116.66C261.162 117.74 263.022 118.7 263.982 119.54C264.942 120.86 265.782 122.06 266.502 123.14C267.342 124.1 267.822 125.3 267.942 126.74C268.062 127.7 267.762 128.9 267.042 130.34C266.322 131.78 265.362 132.8 264.162 133.4C263.082 134 262.002 133.7 260.922 132.5C259.242 130.1 257.562 128.54 255.882 127.82C254.202 126.98 252.402 126.08 250.482 125.12C249.162 124.4 247.302 124.04 244.902 124.04C242.622 124.04 240.282 124.4 237.882 125.12C235.482 125.72 233.442 126.8 231.762 128.36C230.562 129.44 229.002 131.12 227.082 133.4C225.282 135.56 223.482 137.96 221.682 140.6C219.882 143.12 218.442 145.58 217.362 147.98C214.362 153.74 211.662 159.56 209.262 165.44C206.862 171.2 204.882 177.44 203.322 184.16C202.962 185.84 202.422 188.3 201.702 191.54C200.982 194.78 200.322 198.08 199.722 201.44C199.242 204.68 198.882 207.32 198.642 209.36C197.922 215.24 197.802 220.4 198.282 224.84C198.762 229.28 200.382 232.28 203.142 233.84C206.022 235.4 210.582 234.98 216.822 232.58C219.582 232.1 222.522 230.84 225.642 228.8C228.762 226.64 231.762 224 234.642 220.88C237.642 217.64 240.162 214.22 242.202 210.62C244.122 206.66 245.802 202.82 247.242 199.1C248.802 195.38 249.582 192.32 249.582 189.92C249.582 187.52 248.382 186.38 245.982 186.5C241.542 186.26 237.942 186.26 235.182 186.5C232.542 186.74 230.082 186.44 227.802 185.6C226.962 184.28 226.542 182.96 226.542 181.64C226.662 180.32 227.382 179 228.702 177.68C229.902 177.08 232.062 176.66 235.182 176.42C238.302 176.06 241.662 176 245.262 176.24C248.982 176.48 252.222 177.26 254.982 178.58C258.102 179.9 259.902 182.24 260.382 185.6C260.982 188.96 260.982 192.56 260.382 196.4C259.902 199.04 258.702 202.22 256.782 205.94C254.982 209.66 252.822 213.62 250.302 217.82C248.502 220.46 246.042 223.34 242.922 226.46C239.802 229.46 236.622 232.22 233.382 234.74C230.262 237.26 227.622 239 225.462 239.96C220.662 242.24 215.742 243.8 210.702 244.64C205.782 245.6 201.642 244.94 198.282 242.66Z" fill="white"/>
<path d="M117.52 246.08L113.063 257.222L114.128 257.648L115.254 257.864L117.52 246.08ZM111.94 243.74L106.865 254.614L106.997 254.676L107.13 254.734L111.94 243.74ZM106.72 239.96L115.205 231.475H115.205L106.72 239.96ZM102.58 233.3L91.2355 237.212L91.3583 237.568L91.5031 237.915L102.58 233.3ZM100.06 223.04L88.1283 224.318L88.1508 224.528L88.1806 224.737L100.06 223.04ZM99.7 211.34L111.696 211.664L111.7 211.502V211.34H99.7ZM100.96 195.14L89.2048 192.729L89.1805 192.847L89.1586 192.966L100.96 195.14ZM105.28 180.92L95.2954 174.264L94.6023 175.303L94.1383 176.463L105.28 180.92ZM106.54 177.86L95.3983 173.403L95.3147 173.612L95.2391 173.824L106.54 177.86ZM108.88 172.1L98.0222 166.99L97.8964 167.258L97.7839 167.531L108.88 172.1ZM111.04 167.42L100.182 162.31L100.127 162.428L100.074 162.546L111.04 167.42ZM115.36 159.32L105.008 153.251L104.974 153.309L104.941 153.366L115.36 159.32ZM121.84 149.24L131.654 156.146L131.722 156.048L131.789 155.95L121.84 149.24ZM130.48 137L140.034 144.261L140.034 144.261L130.48 137ZM136.96 129.44L145.445 137.925L145.445 137.925L136.96 129.44ZM143.8 123.68L150.775 133.445L150.817 133.415L150.858 133.385L143.8 123.68ZM153.88 116.66L160.604 126.599L160.773 126.485L160.938 126.365L153.88 116.66ZM162.52 113.6L162.076 101.608L162.067 101.609L162.059 101.609L162.52 113.6ZM171.52 115.76L165.615 126.207L165.791 126.306L165.969 126.399L171.52 115.76ZM177.64 122.24L166.731 127.24L166.863 127.528L167.01 127.808L177.64 122.24ZM178 142.58L189.552 145.829L189.565 145.783L189.577 145.737L178 142.58ZM173.5 153.56L184.007 159.357L184.007 159.357L173.5 153.56ZM166.84 162.2L158.789 153.302L158.745 153.342L158.701 153.382L166.84 162.2ZM162.52 163.82L159.072 175.314L159.217 175.357L159.363 175.397L162.52 163.82ZM158.2 160.94L147.595 166.555L148.545 168.351L150.035 169.734L158.2 160.94ZM156.4 157.34H144.4V159.287L145.016 161.135L156.4 157.34ZM157.12 156.62L160.03 168.262L163.742 167.334L166.231 164.43L157.12 156.62ZM160 152.3L149.657 146.216L149.657 146.216L160 152.3ZM163.6 145.82L174.219 151.409L174.277 151.298L174.333 151.187L163.6 145.82ZM166.12 140.06L177.504 143.855L177.758 143.094L177.908 142.305L166.12 140.06ZM168.1 129.44L179.917 131.525L179.927 131.469L179.937 131.413L168.1 129.44ZM164.86 124.04L163.372 112.133L163.267 112.146L163.163 112.161L164.86 124.04ZM160.54 125.84L165.325 136.845L165.747 136.661L166.155 136.445L160.54 125.84ZM149.74 133.94L157.86 142.776L157.923 142.717L157.986 142.658L149.74 133.94ZM137.5 147.62L147.078 154.849L147.117 154.798L147.155 154.746L137.5 147.62ZM118.06 179.66L128.793 185.027L129.193 184.226L129.47 183.375L118.06 179.66ZM116.8 182.36L105.876 177.394L105.682 177.82L105.522 178.259L116.8 182.36ZM116.08 184.34L104.802 180.239L103.548 183.689L104.438 187.25L116.08 184.34ZM115.54 187.94L127.135 191.032L127.159 190.941L127.182 190.85L115.54 187.94ZM113.92 192.62L102.996 187.654L102.518 188.706L102.249 189.829L113.92 192.62ZM111.58 209.9L123.57 210.389L123.57 210.38L111.58 209.9ZM112.48 225.56L100.679 227.734L100.706 227.883L100.737 228.032L112.48 225.56ZM116.62 235.1L108.135 243.585L108.9 244.35L109.789 244.966L116.62 235.1ZM122.92 236.18L121.368 224.281L121.333 224.285L121.299 224.29L122.92 236.18ZM132.28 233.66L128.024 222.44L128.024 222.44L132.28 233.66ZM142.9 229.34L138.285 218.263L138.206 218.296L138.129 218.329L142.9 229.34ZM150.82 225.38L144.646 215.09L150.82 225.38ZM156.22 221.6L149.02 212L148.591 212.322L148.192 212.68L156.22 221.6ZM159.82 219.44L165.187 230.173L165.349 230.092L165.509 230.006L159.82 219.44ZM163.78 218.18V230.18H165.859L167.816 229.481L163.78 218.18ZM166.66 217.46L172.027 206.727L172.027 206.727L166.66 217.46ZM164.14 224.66L155.402 216.436L155.269 216.576L155.142 216.721L164.14 224.66ZM157.12 230.24L151.074 219.875L149.733 220.657L148.635 221.755L157.12 230.24ZM153.34 233.3L146.509 223.434L153.34 233.3ZM148.48 235.82L144.444 224.519L142.689 225.146L141.207 226.275L148.48 235.82ZM139.12 241.4L144.347 252.202L139.12 241.4ZM127.78 245.54L124.87 233.898L124.825 233.909L124.781 233.921L127.78 245.54ZM121.977 234.938C120.304 234.269 118.562 233.539 116.75 232.746L107.13 254.734C109.158 255.621 111.136 256.451 113.063 257.222L121.977 234.938ZM117.015 232.866C116.703 232.721 116.085 232.355 115.205 231.475L98.2347 248.445C100.715 250.925 103.577 253.079 106.865 254.614L117.015 232.866ZM115.205 231.475C115.111 231.381 114.485 230.672 113.657 228.685L91.5031 237.915C93.0749 241.688 95.2087 245.419 98.2347 248.445L115.205 231.475ZM113.924 229.388C112.952 226.568 112.303 223.889 111.939 221.343L88.1806 224.737C88.7769 228.911 89.8081 233.072 91.2355 237.212L113.924 229.388ZM111.992 221.762C111.703 219.069 111.586 215.725 111.696 211.664L87.7044 211.016C87.5741 215.835 87.6968 220.291 88.1283 224.318L111.992 221.762ZM111.7 211.34C111.7 205.597 112.09 200.96 112.761 197.314L89.1586 192.966C88.1502 198.44 87.7 204.603 87.7 211.34H111.7ZM112.715 197.551C113.521 193.624 114.745 189.568 116.422 185.377L94.1383 176.463C91.9748 181.872 90.3192 187.296 89.2048 192.729L112.715 197.551ZM115.265 187.576C116.124 186.287 116.682 184.913 116.871 184.454C117.184 183.695 117.511 182.821 117.841 181.896L95.2391 173.824C95.1081 174.191 94.9947 174.5 94.8981 174.755C94.8003 175.014 94.7279 175.197 94.6789 175.316C94.655 175.374 94.641 175.406 94.6365 175.417C94.6313 175.428 94.6421 175.403 94.6681 175.349C94.6922 175.298 94.7475 175.185 94.8322 175.029C94.8758 174.949 94.934 174.844 95.0065 174.722C95.078 174.602 95.1744 174.445 95.2954 174.264L115.265 187.576ZM117.682 182.317C118.385 180.559 119.149 178.677 119.976 176.669L97.7839 167.531C96.9305 169.603 96.1352 171.561 95.3983 173.403L117.682 182.317ZM119.738 177.21C120.708 175.148 121.472 173.494 122.006 172.294L100.074 162.546C99.6479 163.506 98.9719 164.972 98.0222 166.99L119.738 177.21ZM121.898 172.53C122.661 170.908 123.922 168.523 125.779 165.274L104.941 153.366C102.958 156.837 101.339 159.852 100.182 162.31L121.898 172.53ZM125.712 165.389C127.588 162.19 129.568 159.11 131.654 156.146L112.026 142.334C109.552 145.85 107.212 149.49 105.008 153.251L125.712 165.389ZM131.789 155.95C135.212 150.874 137.95 147.003 140.034 144.261L120.926 129.739C118.45 132.997 115.428 137.286 111.891 142.53L131.789 155.95ZM140.034 144.261C142.079 141.57 143.884 139.486 145.445 137.925L128.475 120.955C125.956 123.474 123.441 126.43 120.926 129.739L140.034 144.261ZM145.445 137.925C146.985 136.385 148.754 134.888 150.775 133.445L136.825 113.915C133.806 116.072 131.015 118.415 128.475 120.955L145.445 137.925ZM150.858 133.385C153.348 131.574 156.586 129.317 160.604 126.599L147.156 106.721C143.014 109.523 139.532 111.946 136.742 113.975L150.858 133.385ZM160.938 126.365C161.747 125.777 162.35 125.615 162.981 125.591L162.059 101.609C156.45 101.825 151.293 103.703 146.822 106.955L160.938 126.365ZM162.964 125.592C164.039 125.552 164.834 125.765 165.615 126.207L177.425 105.313C172.686 102.635 167.481 101.408 162.076 101.608L162.964 125.592ZM165.969 126.399C166.322 126.583 166.5 126.736 166.731 127.24L188.549 117.24C186.14 111.984 182.238 107.817 177.071 105.121L165.969 126.399ZM167.01 127.808C167.223 128.214 167.62 129.257 167.62 131.42H191.62C191.62 126.383 190.697 121.306 188.27 116.672L167.01 127.808ZM167.62 131.42C167.62 133.663 167.271 136.313 166.423 139.423L189.577 145.737C190.889 140.927 191.62 136.137 191.62 131.42H167.62ZM166.448 139.331C165.617 142.288 164.467 145.092 162.993 147.763L184.007 159.357C186.373 155.068 188.223 150.552 189.552 145.829L166.448 139.331ZM162.993 147.763C161.608 150.273 160.173 152.049 158.789 153.302L174.891 171.098C178.547 167.791 181.552 163.807 184.007 159.357L162.993 147.763ZM158.701 153.382C158.704 153.379 158.829 153.263 159.082 153.096C159.336 152.929 159.767 152.677 160.377 152.449C161.711 151.949 163.608 151.679 165.677 152.243L159.363 175.397C166.544 177.356 172.151 173.628 174.979 171.018L158.701 153.382ZM165.968 152.326C166.432 152.465 166.761 152.614 166.942 152.704C167.125 152.796 167.211 152.855 167.196 152.845C167.184 152.837 167.104 152.782 166.955 152.662C166.807 152.543 166.611 152.375 166.365 152.146L150.035 169.734C152.121 171.671 155.2 174.152 159.072 175.314L165.968 152.326ZM168.805 155.325C168.283 154.338 167.912 153.622 167.673 153.143C167.552 152.901 167.493 152.776 167.476 152.739C167.467 152.721 167.489 152.767 167.527 152.858C167.552 152.917 167.661 153.176 167.784 153.545L145.016 161.135C145.4 162.289 146.017 163.497 146.207 163.877C146.568 164.598 147.037 165.502 147.595 166.555L168.805 155.325ZM168.4 157.34C168.4 160.128 167.343 163.098 165.065 165.375C163.099 167.342 160.993 168.021 160.03 168.262L154.21 144.978C152.767 145.339 150.301 146.198 148.095 148.405C145.577 150.922 144.4 154.192 144.4 157.34H168.4ZM166.231 164.43C167.687 162.731 169.094 160.508 170.343 158.384L149.657 146.216C149.133 147.107 148.715 147.775 148.395 148.254C148.052 148.769 147.931 148.901 148.009 148.81L166.231 164.43ZM170.343 158.384C171.647 156.168 172.939 153.842 174.219 151.409L152.981 140.231C151.861 142.358 150.753 144.352 149.657 146.216L170.343 158.384ZM174.333 151.187C175.626 148.601 176.759 146.092 177.504 143.855L154.736 136.265C154.521 136.908 153.974 138.239 152.867 140.453L174.333 151.187ZM177.908 142.305C178.868 137.267 179.542 133.655 179.917 131.525L156.283 127.355C155.938 129.305 155.292 132.773 154.332 137.815L177.908 142.305ZM179.937 131.413C180.64 127.195 180.384 120.974 175.505 116.095L158.535 133.065C157.322 131.852 156.656 130.426 156.386 129.208C156.262 128.65 156.235 128.206 156.235 127.921C156.235 127.639 156.261 127.479 156.263 127.467L179.937 131.413ZM175.505 116.095C171.425 112.014 166.364 111.759 163.372 112.133L166.348 135.947C165.276 136.081 161.655 136.186 158.535 133.065L175.505 116.095ZM163.163 112.161C159.96 112.618 156.769 114.258 154.925 115.235L166.155 136.445C166.558 136.232 166.896 136.061 167.174 135.927C167.456 135.791 167.649 135.705 167.765 135.657C167.89 135.605 167.869 135.619 167.731 135.663C167.657 135.686 167.525 135.726 167.344 135.77C167.166 135.813 166.898 135.871 166.557 135.919L163.163 112.161ZM155.755 114.835C150.98 116.911 146.123 120.843 141.494 125.222L157.986 142.658C162.237 138.637 164.58 137.169 165.325 136.845L155.755 114.835ZM141.62 125.104C136.594 129.723 132.003 134.86 127.845 140.494L147.155 154.746C150.437 150.3 154.006 146.317 157.86 142.776L141.62 125.104ZM127.922 140.391C123.017 146.89 118.838 152.746 115.418 157.94L135.462 171.14C138.522 166.494 142.383 161.07 147.078 154.849L127.922 140.391ZM115.418 157.94C111.638 163.679 108.688 169.683 106.65 175.945L129.47 183.375C130.792 179.317 132.762 175.241 135.462 171.14L115.418 157.94ZM107.327 174.293C106.974 175 106.468 176.092 105.876 177.394L127.724 187.326C128.332 185.988 128.666 185.28 128.793 185.027L107.327 174.293ZM105.522 178.259C105.522 178.262 105.521 178.264 105.52 178.267C105.519 178.269 105.518 178.272 105.517 178.275C105.516 178.277 105.515 178.28 105.514 178.282C105.513 178.285 105.512 178.287 105.511 178.29C105.51 178.292 105.509 178.295 105.508 178.298C105.508 178.3 105.507 178.303 105.506 178.305C105.505 178.308 105.504 178.31 105.503 178.313C105.502 178.315 105.501 178.318 105.5 178.32C105.499 178.323 105.498 178.326 105.497 178.328C105.496 178.331 105.496 178.333 105.495 178.336C105.494 178.338 105.493 178.341 105.492 178.343C105.491 178.346 105.49 178.348 105.489 178.351C105.488 178.353 105.487 178.356 105.486 178.358C105.485 178.361 105.485 178.363 105.484 178.366C105.483 178.368 105.482 178.371 105.481 178.373C105.48 178.376 105.479 178.378 105.478 178.381C105.477 178.383 105.476 178.386 105.475 178.388C105.475 178.391 105.474 178.393 105.473 178.396C105.472 178.398 105.471 178.401 105.47 178.403C105.469 178.406 105.468 178.408 105.467 178.411C105.466 178.413 105.466 178.416 105.465 178.418C105.464 178.421 105.463 178.423 105.462 178.426C105.461 178.428 105.46 178.431 105.459 178.433C105.458 178.435 105.457 178.438 105.457 178.44C105.456 178.443 105.455 178.445 105.454 178.448C105.453 178.45 105.452 178.453 105.451 178.455C105.45 178.458 105.449 178.46 105.449 178.462C105.448 178.465 105.447 178.467 105.446 178.47C105.445 178.472 105.444 178.475 105.443 178.477C105.442 178.479 105.441 178.482 105.441 178.484C105.44 178.487 105.439 178.489 105.438 178.492C105.437 178.494 105.436 178.496 105.435 178.499C105.434 178.501 105.434 178.504 105.433 178.506C105.432 178.509 105.431 178.511 105.43 178.513C105.429 178.516 105.428 178.518 105.427 178.521C105.427 178.523 105.426 178.525 105.425 178.528C105.424 178.53 105.423 178.533 105.422 178.535C105.421 178.537 105.42 178.54 105.42 178.542C105.419 178.544 105.418 178.547 105.417 178.549C105.416 178.552 105.415 178.554 105.414 178.556C105.414 178.559 105.413 178.561 105.412 178.564C105.411 178.566 105.41 178.568 105.409 178.571C105.408 178.573 105.407 178.575 105.407 178.578C105.406 178.58 105.405 178.582 105.404 178.585C105.403 178.587 105.402 178.589 105.401 178.592C105.401 178.594 105.4 178.597 105.399 178.599C105.398 178.601 105.397 178.604 105.396 178.606C105.396 178.608 105.395 178.611 105.394 178.613C105.393 178.615 105.392 178.618 105.391 178.62C105.39 178.622 105.39 178.625 105.389 178.627C105.388 178.629 105.387 178.632 105.386 178.634C105.385 178.636 105.384 178.639 105.384 178.641C105.383 178.643 105.382 178.645 105.381 178.648C105.38 178.65 105.379 178.652 105.379 178.655C105.378 178.657 105.377 178.659 105.376 178.662C105.375 178.664 105.374 178.666 105.374 178.669C105.373 178.671 105.372 178.673 105.371 178.675C105.37 178.678 105.369 178.68 105.369 178.682C105.368 178.685 105.367 178.687 105.366 178.689C105.365 178.691 105.364 178.694 105.364 178.696C105.363 178.698 105.362 178.701 105.361 178.703C105.36 178.705 105.359 178.707 105.359 178.71C105.358 178.712 105.357 178.714 105.356 178.716C105.355 178.719 105.355 178.721 105.354 178.723C105.353 178.725 105.352 178.728 105.351 178.73C105.35 178.732 105.35 178.734 105.349 178.737C105.348 178.739 105.347 178.741 105.346 178.743C105.346 178.746 105.345 178.748 105.344 178.75C105.343 178.752 105.342 178.755 105.341 178.757C105.341 178.759 105.34 178.761 105.339 178.763C105.338 178.766 105.337 178.768 105.337 178.77C105.336 178.772 105.335 178.775 105.334 178.777C105.333 178.779 105.333 178.781 105.332 178.783C105.331 178.786 105.33 178.788 105.329 178.79C105.329 178.792 105.328 178.794 105.327 178.797C105.326 178.799 105.325 178.801 105.325 178.803C105.324 178.805 105.323 178.808 105.322 178.81C105.321 178.812 105.321 178.814 105.32 178.816C105.319 178.819 105.318 178.821 105.317 178.823C105.317 178.825 105.316 178.827 105.315 178.83C105.314 178.832 105.313 178.834 105.313 178.836C105.312 178.838 105.311 178.84 105.31 178.843C105.31 178.845 105.309 178.847 105.308 178.849C105.307 178.851 105.306 178.853 105.306 178.855C105.305 178.858 105.304 178.86 105.303 178.862C105.302 178.864 105.302 178.866 105.301 178.868C105.3 178.871 105.299 178.873 105.299 178.875C105.298 178.877 105.297 178.879 105.296 178.881C105.295 178.883 105.295 178.885 105.294 178.888C105.293 178.89 105.292 178.892 105.292 178.894C105.291 178.896 105.29 178.898 105.289 178.9C105.289 178.902 105.288 178.905 105.287 178.907C105.286 178.909 105.285 178.911 105.285 178.913C105.284 178.915 105.283 178.917 105.282 178.919C105.282 178.921 105.281 178.924 105.28 178.926C105.279 178.928 105.279 178.93 105.278 178.932C105.277 178.934 105.276 178.936 105.276 178.938C105.275 178.94 105.274 178.942 105.273 178.945C105.272 178.947 105.272 178.949 105.271 178.951C105.27 178.953 105.269 178.955 105.269 178.957C105.268 178.959 105.267 178.961 105.266 178.963C105.266 178.965 105.265 178.967 105.264 178.969C105.263 178.971 105.263 178.974 105.262 178.976C105.261 178.978 105.26 178.98 105.26 178.982C105.259 178.984 105.258 178.986 105.257 178.988C105.257 178.99 105.256 178.992 105.255 178.994C105.254 178.996 105.254 178.998 105.253 179C105.252 179.002 105.252 179.004 105.251 179.006C105.25 179.008 105.249 179.01 105.249 179.012C105.248 179.014 105.247 179.016 105.246 179.018C105.246 179.021 105.245 179.023 105.244 179.025C105.243 179.027 105.243 179.029 105.242 179.031C105.241 179.033 105.24 179.035 105.24 179.037C105.239 179.039 105.238 179.041 105.238 179.043C105.237 179.045 105.236 179.047 105.235 179.049C105.235 179.051 105.234 179.053 105.233 179.055C105.232 179.057 105.232 179.059 105.231 179.061C105.23 179.063 105.23 179.065 105.229 179.067C105.228 179.069 105.227 179.071 105.227 179.073C105.226 179.075 105.225 179.076 105.225 179.078C105.224 179.08 105.223 179.082 105.222 179.084C105.222 179.086 105.221 179.088 105.22 179.09C105.22 179.092 105.219 179.094 105.218 179.096C105.217 179.098 105.217 179.1 105.216 179.102C105.215 179.104 105.215 179.106 105.214 179.108C105.213 179.11 105.212 179.112 105.212 179.114C105.211 179.116 105.21 179.118 105.21 179.12C105.209 179.121 105.208 179.123 105.207 179.125C105.207 179.127 105.206 179.129 105.205 179.131C105.205 179.133 105.204 179.135 105.203 179.137C105.203 179.139 105.202 179.141 105.201 179.143C105.2 179.145 105.2 179.147 105.199 179.148C105.198 179.15 105.198 179.152 105.197 179.154C105.196 179.156 105.196 179.158 105.195 179.16C105.194 179.162 105.194 179.164 105.193 179.166C105.192 179.167 105.191 179.169 105.191 179.171C105.19 179.173 105.189 179.175 105.189 179.177C105.188 179.179 105.187 179.181 105.187 179.183C105.186 179.184 105.185 179.186 105.185 179.188C105.184 179.19 105.183 179.192 105.183 179.194C105.182 179.196 105.181 179.198 105.181 179.199C105.18 179.201 105.179 179.203 105.178 179.205C105.178 179.207 105.177 179.209 105.176 179.211C105.176 179.213 105.175 179.214 105.174 179.216C105.174 179.218 105.173 179.22 105.172 179.222C105.172 179.224 105.171 179.225 105.17 179.227C105.17 179.229 105.169 179.231 105.168 179.233C105.168 179.235 105.167 179.237 105.166 179.238C105.166 179.24 105.165 179.242 105.164 179.244C105.164 179.246 105.163 179.247 105.162 179.249C105.162 179.251 105.161 179.253 105.16 179.255C105.16 179.257 105.159 179.258 105.158 179.26C105.158 179.262 105.157 179.264 105.156 179.266C105.156 179.267 105.155 179.269 105.154 179.271C105.154 179.273 105.153 179.275 105.153 179.276C105.152 179.278 105.151 179.28 105.151 179.282C105.15 179.284 105.149 179.285 105.149 179.287C105.148 179.289 105.147 179.291 105.147 179.293C105.146 179.294 105.145 179.296 105.145 179.298C105.144 179.3 105.143 179.301 105.143 179.303C105.142 179.305 105.142 179.307 105.141 179.309C105.14 179.31 105.14 179.312 105.139 179.314C105.138 179.316 105.138 179.317 105.137 179.319C105.136 179.321 105.136 179.323 105.135 179.324C105.134 179.326 105.134 179.328 105.133 179.33C105.133 179.331 105.132 179.333 105.131 179.335C105.131 179.337 105.13 179.338 105.129 179.34C105.129 179.342 105.128 179.344 105.127 179.345C105.127 179.347 105.126 179.349 105.126 179.35C105.125 179.352 105.124 179.354 105.124 179.356C105.123 179.357 105.122 179.359 105.122 179.361C105.121 179.363 105.121 179.364 105.12 179.366C105.119 179.368 105.119 179.369 105.118 179.371C105.117 179.373 105.117 179.374 105.116 179.376C105.116 179.378 105.115 179.38 105.114 179.381C105.114 179.383 105.113 179.385 105.113 179.386C105.112 179.388 105.111 179.39 105.111 179.391C105.11 179.393 105.109 179.395 105.109 179.396C105.108 179.398 105.108 179.4 105.107 179.402C105.106 179.403 105.106 179.405 105.105 179.407C105.105 179.408 105.104 179.41 105.103 179.412C105.103 179.413 105.102 179.415 105.102 179.417C105.101 179.418 105.1 179.42 105.1 179.422C105.099 179.423 105.099 179.425 105.098 179.426C105.097 179.428 105.097 179.43 105.096 179.431C105.096 179.433 105.095 179.435 105.094 179.436C105.094 179.438 105.093 179.44 105.093 179.441C105.092 179.443 105.091 179.445 105.091 179.446C105.09 179.448 105.09 179.449 105.089 179.451C105.088 179.453 105.088 179.454 105.087 179.456C105.087 179.458 105.086 179.459 105.085 179.461C105.085 179.462 105.084 179.464 105.084 179.466C105.083 179.467 105.083 179.469 105.082 179.47C105.081 179.472 105.081 179.474 105.08 179.475C105.08 179.477 105.079 179.478 105.078 179.48C105.078 179.482 105.077 179.483 105.077 179.485C105.076 179.486 105.076 179.488 105.075 179.49C105.074 179.491 105.074 179.493 105.073 179.494C105.073 179.496 105.072 179.498 105.072 179.499C105.071 179.501 105.07 179.502 105.07 179.504C105.069 179.505 105.069 179.507 105.068 179.509C105.068 179.51 105.067 179.512 105.066 179.513C105.066 179.515 105.065 179.516 105.065 179.518C105.064 179.519 105.064 179.521 105.063 179.523C105.062 179.524 105.062 179.526 105.061 179.527C105.061 179.529 105.06 179.53 105.06 179.532C105.059 179.533 105.059 179.535 105.058 179.536C105.057 179.538 105.057 179.54 105.056 179.541C105.056 179.543 105.055 179.544 105.055 179.546C105.054 179.547 105.054 179.549 105.053 179.55C105.052 179.552 105.052 179.553 105.051 179.555C105.051 179.556 105.05 179.558 105.05 179.559C105.049 179.561 105.049 179.562 105.048 179.564C105.047 179.565 105.047 179.567 105.046 179.568C105.046 179.57 105.045 179.571 105.045 179.573C105.044 179.574 105.044 179.576 105.043 179.577C105.043 179.579 105.042 179.58 105.042 179.582C105.041 179.583 105.04 179.585 105.04 179.586C105.039 179.588 105.039 179.589 105.038 179.591C105.038 179.592 105.037 179.594 105.037 179.595C105.036 179.597 105.036 179.598 105.035 179.599C105.035 179.601 105.034 179.602 105.033 179.604C105.033 179.605 105.032 179.607 105.032 179.608C105.031 179.61 105.031 179.611 105.03 179.613C105.03 179.614 105.029 179.616 105.029 179.617C105.028 179.618 105.028 179.62 105.027 179.621C105.027 179.623 105.026 179.624 105.026 179.626C105.025 179.627 105.025 179.628 105.024 179.63C105.023 179.631 105.023 179.633 105.022 179.634C105.022 179.636 105.021 179.637 105.021 179.638C105.02 179.64 105.02 179.641 105.019 179.643C105.019 179.644 105.018 179.646 105.018 179.647C105.017 179.648 105.017 179.65 105.016 179.651C105.016 179.653 105.015 179.654 105.015 179.655C105.014 179.657 105.014 179.658 105.013 179.66C105.013 179.661 105.012 179.662 105.012 179.664C105.011 179.665 105.011 179.667 105.01 179.668C105.01 179.669 105.009 179.671 105.009 179.672C105.008 179.673 105.008 179.675 105.007 179.676C105.007 179.678 105.006 179.679 105.006 179.68C105.005 179.682 105.005 179.683 105.004 179.684C105.004 179.686 105.003 179.687 105.003 179.688C105.002 179.69 105.002 179.691 105.001 179.693C105.001 179.694 105 179.695 105 179.697C104.999 179.698 104.999 179.699 104.998 179.701C104.998 179.702 104.997 179.703 104.997 179.705C104.996 179.706 104.996 179.707 104.995 179.709C104.995 179.71 104.994 179.711 104.994 179.713C104.993 179.714 104.993 179.715 104.992 179.717C104.992 179.718 104.991 179.719 104.991 179.721C104.991 179.722 104.99 179.723 104.99 179.725C104.989 179.726 104.989 179.727 104.988 179.729C104.988 179.73 104.987 179.731 104.987 179.732C104.986 179.734 104.986 179.735 104.985 179.736C104.985 179.738 104.984 179.739 104.984 179.74C104.983 179.742 104.983 179.743 104.982 179.744C104.982 179.745 104.982 179.747 104.981 179.748C104.981 179.749 104.98 179.751 104.98 179.752C104.979 179.753 104.979 179.754 104.978 179.756C104.978 179.757 104.977 179.758 104.977 179.759C104.976 179.761 104.976 179.762 104.976 179.763C104.975 179.765 104.975 179.766 104.974 179.767C104.974 179.768 104.973 179.77 104.973 179.771C104.972 179.772 104.972 179.773 104.971 179.775C104.971 179.776 104.97 179.777 104.97 179.778C104.97 179.78 104.969 179.781 104.969 179.782C104.968 179.783 104.968 179.784 104.967 179.786C104.967 179.787 104.966 179.788 104.966 179.789C104.966 179.791 104.965 179.792 104.965 179.793C104.964 179.794 104.964 179.796 104.963 179.797C104.963 179.798 104.962 179.799 104.962 179.8C104.962 179.802 104.961 179.803 104.961 179.804C104.96 179.805 104.96 179.806 104.959 179.808C104.959 179.809 104.958 179.81 104.958 179.811C104.958 179.812 104.957 179.814 104.957 179.815C104.956 179.816 104.956 179.817 104.955 179.818C104.955 179.82 104.955 179.821 104.954 179.822C104.954 179.823 104.953 179.824 104.953 179.826C104.952 179.827 104.952 179.828 104.952 179.829C104.951 179.83 104.951 179.831 104.95 179.833C104.95 179.834 104.949 179.835 104.949 179.836C104.949 179.837 104.948 179.838 104.948 179.84C104.947 179.841 104.947 179.842 104.947 179.843C104.946 179.844 104.946 179.845 104.945 179.846C104.945 179.848 104.944 179.849 104.944 179.85C104.944 179.851 104.943 179.852 104.943 179.853C104.942 179.854 104.942 179.856 104.942 179.857C104.941 179.858 104.941 179.859 104.94 179.86C104.94 179.861 104.939 179.862 104.939 179.863C104.939 179.865 104.938 179.866 104.938 179.867C104.937 179.868 104.937 179.869 104.937 179.87C104.936 179.871 104.936 179.872 104.935 179.874C104.935 179.875 104.935 179.876 104.934 179.877C104.934 179.878 104.933 179.879 104.933 179.88C104.933 179.881 104.932 179.882 104.932 179.883C104.931 179.885 104.931 179.886 104.931 179.887C104.93 179.888 104.93 179.889 104.929 179.89C104.929 179.891 104.929 179.892 104.928 179.893C104.928 179.894 104.927 179.895 104.927 179.896C104.927 179.897 104.926 179.899 104.926 179.9C104.926 179.901 104.925 179.902 104.925 179.903C104.924 179.904 104.924 179.905 104.924 179.906C104.923 179.907 104.923 179.908 104.922 179.909C104.922 179.91 104.922 179.911 104.921 179.912C104.921 179.913 104.921 179.914 104.92 179.915C104.92 179.916 104.919 179.918 104.919 179.919C104.919 179.92 104.918 179.921 104.918 179.922C104.918 179.923 104.917 179.924 104.917 179.925C104.916 179.926 104.916 179.927 104.916 179.928C104.915 179.929 104.915 179.93 104.915 179.931C104.914 179.932 104.914 179.933 104.913 179.934C104.913 179.935 104.913 179.936 104.912 179.937C104.912 179.938 104.912 179.939 104.911 179.94C104.911 179.941 104.911 179.942 104.91 179.943C104.91 179.944 104.909 179.945 104.909 179.946C104.909 179.947 104.908 179.948 104.908 179.949C104.908 179.95 104.907 179.951 104.907 179.952C104.907 179.953 104.906 179.954 104.906 179.955C104.905 179.956 104.905 179.957 104.905 179.958C104.904 179.959 104.904 179.96 104.904 179.961C104.903 179.962 104.903 179.963 104.903 179.964C104.902 179.965 104.902 179.965 104.902 179.966C104.901 179.967 104.901 179.968 104.901 179.969C104.9 179.97 104.9 179.971 104.9 179.972C104.899 179.973 104.899 179.974 104.899 179.975C104.898 179.976 104.898 179.977 104.897 179.978C104.897 179.979 104.897 179.98 104.896 179.981C104.896 179.982 104.896 179.982 104.895 179.983C104.895 179.984 104.895 179.985 104.894 179.986C104.894 179.987 104.894 179.988 104.893 179.989C104.893 179.99 104.893 179.991 104.892 179.992C104.892 179.993 104.892 179.993 104.891 179.994C104.891 179.995 104.891 179.996 104.89 179.997C104.89 179.998 104.89 179.999 104.89 180C104.889 180.001 104.889 180.002 104.889 180.002C104.888 180.003 104.888 180.004 104.888 180.005C104.887 180.006 104.887 180.007 104.887 180.008C104.886 180.009 104.886 180.01 104.886 180.01C104.885 180.011 104.885 180.012 104.885 180.013C104.884 180.014 104.884 180.015 104.884 180.016C104.883 180.017 104.883 180.017 104.883 180.018C104.882 180.019 104.882 180.02 104.882 180.021C104.882 180.022 104.881 180.023 104.881 180.023C104.881 180.024 104.88 180.025 104.88 180.026C104.88 180.027 104.879 180.028 104.879 180.028C104.879 180.029 104.878 180.03 104.878 180.031C104.878 180.032 104.878 180.033 104.877 180.033C104.877 180.034 104.877 180.035 104.876 180.036C104.876 180.037 104.876 180.038 104.875 180.038C104.875 180.039 104.875 180.04 104.875 180.041C104.874 180.042 104.874 180.042 104.874 180.043C104.873 180.044 104.873 180.045 104.873 180.046C104.872 180.047 104.872 180.047 104.872 180.048C104.872 180.049 104.871 180.05 104.871 180.051C104.871 180.051 104.87 180.052 104.87 180.053C104.87 180.054 104.87 180.054 104.869 180.055C104.869 180.056 104.869 180.057 104.868 180.058C104.868 180.058 104.868 180.059 104.868 180.06C104.867 180.061 104.867 180.062 104.867 180.062C104.866 180.063 104.866 180.064 104.866 180.065C104.866 180.065 104.865 180.066 104.865 180.067C104.865 180.068 104.865 180.068 104.864 180.069C104.864 180.07 104.864 180.071 104.863 180.071C104.863 180.072 104.863 180.073 104.863 180.074C104.862 180.074 104.862 180.075 104.862 180.076C104.862 180.077 104.861 180.077 104.861 180.078C104.861 180.079 104.86 180.08 104.86 180.08C104.86 180.081 104.86 180.082 104.859 180.082C104.859 180.083 104.859 180.084 104.859 180.085C104.858 180.085 104.858 180.086 104.858 180.087C104.858 180.088 104.857 180.088 104.857 180.089C104.857 180.09 104.857 180.09 104.856 180.091C104.856 180.092 104.856 180.092 104.856 180.093C104.855 180.094 104.855 180.095 104.855 180.095C104.855 180.096 104.854 180.097 104.854 180.097C104.854 180.098 104.854 180.099 104.853 180.099C104.853 180.1 104.853 180.101 104.853 180.101C104.852 180.102 104.852 180.103 104.852 180.103C104.852 180.104 104.851 180.105 104.851 180.105C104.851 180.106 104.851 180.107 104.85 180.107C104.85 180.108 104.85 180.109 104.85 180.109C104.849 180.11 104.849 180.111 104.849 180.111C104.849 180.112 104.848 180.113 104.848 180.113C104.848 180.114 104.848 180.115 104.847 180.115C104.847 180.116 104.847 180.117 104.847 180.117C104.847 180.118 104.846 180.119 104.846 180.119C104.846 180.12 104.846 180.12 104.845 180.121C104.845 180.122 104.845 180.122 104.845 180.123C104.844 180.124 104.844 180.124 104.844 180.125C104.844 180.125 104.844 180.126 104.843 180.127C104.843 180.127 104.843 180.128 104.843 180.129C104.842 180.129 104.842 180.13 104.842 180.13C104.842 180.131 104.842 180.132 104.841 180.132C104.841 180.133 104.841 180.133 104.841 180.134C104.841 180.135 104.84 180.135 104.84 180.136C104.84 180.136 104.84 180.137 104.839 180.137C104.839 180.138 104.839 180.139 104.839 180.139C104.839 180.14 104.838 180.14 104.838 180.141C104.838 180.142 104.838 180.142 104.838 180.143C104.837 180.143 104.837 180.144 104.837 180.144C104.837 180.145 104.837 180.145 104.836 180.146C104.836 180.147 104.836 180.147 104.836 180.148C104.836 180.148 104.835 180.149 104.835 180.149C104.835 180.15 104.835 180.15 104.835 180.151C104.834 180.152 104.834 180.152 104.834 180.153C104.834 180.153 104.834 180.154 104.833 180.154C104.833 180.155 104.833 180.155 104.833 180.156C104.833 180.156 104.832 180.157 104.832 180.157C104.832 180.158 104.832 180.158 104.832 180.159C104.831 180.159 104.831 180.16 104.831 180.161C104.831 180.161 104.831 180.162 104.83 180.162C104.83 180.163 104.83 180.163 104.83 180.164C104.83 180.164 104.83 180.165 104.829 180.165C104.829 180.166 104.829 180.166 104.829 180.167C104.829 180.167 104.828 180.168 104.828 180.168C104.828 180.169 104.828 180.169 104.828 180.169C104.828 180.17 104.827 180.17 104.827 180.171C104.827 180.171 104.827 180.172 104.827 180.172C104.827 180.173 104.826 180.173 104.826 180.174C104.826 180.174 104.826 180.175 104.826 180.175C104.826 180.176 104.825 180.176 104.825 180.177C104.825 180.177 104.825 180.177 104.825 180.178C104.825 180.178 104.824 180.179 104.824 180.179C104.824 180.18 104.824 180.18 104.824 180.181C104.824 180.181 104.823 180.181 104.823 180.182C104.823 180.182 104.823 180.183 104.823 180.183C104.823 180.184 104.822 180.184 104.822 180.185C104.822 180.185 104.822 180.185 104.822 180.186C104.822 180.186 104.822 180.187 104.821 180.187C104.821 180.187 104.821 180.188 104.821 180.188C104.821 180.189 104.821 180.189 104.82 180.19C104.82 180.19 104.82 180.19 104.82 180.191C104.82 180.191 104.82 180.192 104.82 180.192C104.819 180.192 104.819 180.193 104.819 180.193C104.819 180.194 104.819 180.194 104.819 180.194C104.819 180.195 104.818 180.195 104.818 180.195C104.818 180.196 104.818 180.196 104.818 180.197C104.818 180.197 104.818 180.197 104.818 180.198C104.817 180.198 104.817 180.198 104.817 180.199C104.817 180.199 104.817 180.2 104.817 180.2C104.817 180.2 104.816 180.201 104.816 180.201C104.816 180.201 104.816 180.202 104.816 180.202C104.816 180.202 104.816 180.203 104.816 180.203C104.815 180.203 104.815 180.204 104.815 180.204C104.815 180.205 104.815 180.205 104.815 180.205C104.815 180.206 104.815 180.206 104.814 180.206C104.814 180.207 104.814 180.207 104.814 180.207C104.814 180.208 104.814 180.208 104.814 180.208C104.814 180.208 104.813 180.209 104.813 180.209C104.813 180.209 104.813 180.21 104.813 180.21C104.813 180.21 104.813 180.211 104.813 180.211C104.813 180.211 104.812 180.212 104.812 180.212C104.812 180.212 104.812 180.213 104.812 180.213C104.812 180.213 104.812 180.213 104.812 180.214C104.812 180.214 104.812 180.214 104.811 180.215C104.811 180.215 104.811 180.215 104.811 180.215C104.811 180.216 104.811 180.216 104.811 180.216C104.811 180.217 104.811 180.217 104.81 180.217C104.81 180.217 104.81 180.218 104.81 180.218C104.81 180.218 104.81 180.218 104.81 180.219C104.81 180.219 104.81 180.219 104.81 180.219C104.81 180.22 104.809 180.22 104.809 180.22C104.809 180.22 104.809 180.221 104.809 180.221C104.809 180.221 104.809 180.221 104.809 180.222C104.809 180.222 104.809 180.222 104.809 180.222C104.808 180.223 104.808 180.223 104.808 180.223C104.808 180.223 104.808 180.224 104.808 180.224C104.808 180.224 104.808 180.224 104.808 180.224C104.808 180.225 104.808 180.225 104.808 180.225C104.807 180.225 104.807 180.226 104.807 180.226C104.807 180.226 104.807 180.226 104.807 180.226C104.807 180.227 104.807 180.227 104.807 180.227C104.807 180.227 104.807 180.227 104.807 180.228C104.807 180.228 104.807 180.228 104.806 180.228C104.806 180.228 104.806 180.229 104.806 180.229C104.806 180.229 104.806 180.229 104.806 180.229C104.806 180.229 104.806 180.23 104.806 180.23C104.806 180.23 104.806 180.23 104.806 180.23C104.806 180.231 104.806 180.231 104.805 180.231C104.805 180.231 104.805 180.231 104.805 180.231C104.805 180.232 104.805 180.232 104.805 180.232C104.805 180.232 104.805 180.232 104.805 180.232C104.805 180.232 104.805 180.233 104.805 180.233C104.805 180.233 104.805 180.233 104.805 180.233C104.805 180.233 104.805 180.233 104.804 180.234C104.804 180.234 104.804 180.234 104.804 180.234C104.804 180.234 104.804 180.234 104.804 180.234C104.804 180.234 104.804 180.235 104.804 180.235C104.804 180.235 104.804 180.235 104.804 180.235C104.804 180.235 104.804 180.235 104.804 180.235C104.804 180.236 104.804 180.236 104.804 180.236C104.804 180.236 104.804 180.236 104.804 180.236C104.804 180.236 104.804 180.236 104.803 180.236C104.803 180.236 104.803 180.237 104.803 180.237C104.803 180.237 104.803 180.237 104.803 180.237C104.803 180.237 104.803 180.237 104.803 180.237C104.803 180.237 104.803 180.237 104.803 180.237C104.803 180.237 104.803 180.238 104.803 180.238C104.803 180.238 104.803 180.238 104.803 180.238C104.803 180.238 104.803 180.238 104.803 180.238C104.803 180.238 104.803 180.238 104.803 180.238C104.803 180.238 104.803 180.238 104.803 180.238C104.803 180.238 104.803 180.238 104.803 180.238C104.803 180.239 104.803 180.239 104.803 180.239C104.803 180.239 104.803 180.239 104.803 180.239C104.803 180.239 104.803 180.239 104.803 180.239C104.803 180.239 104.803 180.239 104.803 180.239C104.803 180.239 104.803 180.239 104.803 180.239C104.803 180.239 104.803 180.239 104.803 180.239C104.802 180.239 104.802 180.239 104.802 180.239C104.802 180.239 104.802 180.239 104.802 180.239C104.802 180.239 104.802 180.239 116.08 184.34C127.358 188.441 127.358 188.441 127.358 188.441C127.358 188.441 127.358 188.441 127.358 188.441C127.358 188.441 127.358 188.441 127.358 188.441C127.358 188.441 127.358 188.441 127.358 188.441C127.358 188.441 127.358 188.441 127.358 188.441C127.358 188.441 127.358 188.441 127.358 188.441C127.358 188.441 127.358 188.441 127.358 188.441C127.358 188.441 127.358 188.44 127.358 188.44C127.358 188.44 127.358 188.44 127.358 188.44C127.358 188.44 127.358 188.44 127.358 188.44C127.358 188.44 127.358 188.44 127.358 188.44C127.358 188.44 127.358 188.44 127.358 188.44C127.358 188.44 127.358 188.44 127.358 188.44C127.358 188.44 127.358 188.439 127.358 188.439C127.358 188.439 127.358 188.439 127.358 188.439C127.358 188.439 127.358 188.439 127.358 188.439C127.358 188.439 127.358 188.439 127.358 188.439C127.358 188.439 127.358 188.439 127.358 188.438C127.358 188.438 127.358 188.438 127.359 188.438C127.359 188.438 127.359 188.438 127.359 188.438C127.359 188.438 127.359 188.438 127.359 188.438C127.359 188.437 127.359 188.437 127.359 188.437C127.359 188.437 127.359 188.437 127.359 188.437C127.359 188.437 127.359 188.437 127.359 188.437C127.359 188.436 127.359 188.436 127.359 188.436C127.359 188.436 127.359 188.436 127.359 188.436C127.359 188.436 127.359 188.436 127.36 188.435C127.36 188.435 127.36 188.435 127.36 188.435C127.36 188.435 127.36 188.435 127.36 188.435C127.36 188.434 127.36 188.434 127.36 188.434C127.36 188.434 127.36 188.434 127.36 188.434C127.36 188.433 127.36 188.433 127.36 188.433C127.36 188.433 127.36 188.433 127.361 188.433C127.361 188.433 127.361 188.432 127.361 188.432C127.361 188.432 127.361 188.432 127.361 188.432C127.361 188.431 127.361 188.431 127.361 188.431C127.361 188.431 127.361 188.431 127.361 188.431C127.361 188.43 127.361 188.43 127.361 188.43C127.362 188.43 127.362 188.43 127.362 188.429C127.362 188.429 127.362 188.429 127.362 188.429C127.362 188.429 127.362 188.428 127.362 188.428C127.362 188.428 127.362 188.428 127.362 188.428C127.362 188.427 127.363 188.427 127.363 188.427C127.363 188.427 127.363 188.427 127.363 188.426C127.363 188.426 127.363 188.426 127.363 188.426C127.363 188.425 127.363 188.425 127.363 188.425C127.363 188.425 127.364 188.424 127.364 188.424C127.364 188.424 127.364 188.424 127.364 188.424C127.364 188.423 127.364 188.423 127.364 188.423C127.364 188.423 127.364 188.422 127.364 188.422C127.364 188.422 127.365 188.422 127.365 188.421C127.365 188.421 127.365 188.421 127.365 188.42C127.365 188.42 127.365 188.42 127.365 188.42C127.365 188.419 127.365 188.419 127.366 188.419C127.366 188.419 127.366 188.418 127.366 188.418C127.366 188.418 127.366 188.418 127.366 188.417C127.366 188.417 127.366 188.417 127.366 188.416C127.367 188.416 127.367 188.416 127.367 188.415C127.367 188.415 127.367 188.415 127.367 188.415C127.367 188.414 127.367 188.414 127.367 188.414C127.368 188.413 127.368 188.413 127.368 188.413C127.368 188.412 127.368 188.412 127.368 188.412C127.368 188.412 127.368 188.411 127.368 188.411C127.369 188.411 127.369 188.41 127.369 188.41C127.369 188.41 127.369 188.409 127.369 188.409C127.369 188.409 127.369 188.408 127.369 188.408C127.37 188.408 127.37 188.407 127.37 188.407C127.37 188.407 127.37 188.406 127.37 188.406C127.37 188.406 127.37 188.405 127.371 188.405C127.371 188.405 127.371 188.404 127.371 188.404C127.371 188.404 127.371 188.403 127.371 188.403C127.372 188.402 127.372 188.402 127.372 188.402C127.372 188.401 127.372 188.401 127.372 188.401C127.372 188.4 127.372 188.4 127.373 188.4C127.373 188.399 127.373 188.399 127.373 188.398C127.373 188.398 127.373 188.398 127.373 188.397C127.374 188.397 127.374 188.397 127.374 188.396C127.374 188.396 127.374 188.395 127.374 188.395C127.374 188.395 127.375 188.394 127.375 188.394C127.375 188.393 127.375 188.393 127.375 188.393C127.375 188.392 127.375 188.392 127.376 188.391C127.376 188.391 127.376 188.391 127.376 188.39C127.376 188.39 127.376 188.389 127.376 188.389C127.377 188.388 127.377 188.388 127.377 188.388C127.377 188.387 127.377 188.387 127.377 188.386C127.378 188.386 127.378 188.385 127.378 188.385C127.378 188.385 127.378 188.384 127.378 188.384C127.378 188.383 127.379 188.383 127.379 188.382C127.379 188.382 127.379 188.382 127.379 188.381C127.379 188.381 127.38 188.38 127.38 188.38C127.38 188.379 127.38 188.379 127.38 188.378C127.38 188.378 127.381 188.377 127.381 188.377C127.381 188.377 127.381 188.376 127.381 188.376C127.381 188.375 127.382 188.375 127.382 188.374C127.382 188.374 127.382 188.373 127.382 188.373C127.382 188.372 127.383 188.372 127.383 188.371C127.383 188.371 127.383 188.37 127.383 188.37C127.384 188.369 127.384 188.369 127.384 188.368C127.384 188.368 127.384 188.367 127.384 188.367C127.385 188.366 127.385 188.366 127.385 188.365C127.385 188.365 127.385 188.364 127.386 188.364C127.386 188.363 127.386 188.363 127.386 188.362C127.386 188.362 127.386 188.361 127.387 188.361C127.387 188.36 127.387 188.36 127.387 188.359C127.387 188.359 127.388 188.358 127.388 188.358C127.388 188.357 127.388 188.357 127.388 188.356C127.389 188.356 127.389 188.355 127.389 188.354C127.389 188.354 127.389 188.353 127.39 188.353C127.39 188.352 127.39 188.352 127.39 188.351C127.39 188.351 127.391 188.35 127.391 188.35C127.391 188.349 127.391 188.348 127.391 188.348C127.392 188.347 127.392 188.347 127.392 188.346C127.392 188.346 127.392 188.345 127.393 188.344C127.393 188.344 127.393 188.343 127.393 188.343C127.393 188.342 127.394 188.342 127.394 188.341C127.394 188.34 127.394 188.34 127.394 188.339C127.395 188.339 127.395 188.338 127.395 188.338C127.395 188.337 127.396 188.336 127.396 188.336C127.396 188.335 127.396 188.335 127.396 188.334C127.397 188.333 127.397 188.333 127.397 188.332C127.397 188.332 127.398 188.331 127.398 188.33C127.398 188.33 127.398 188.329 127.398 188.328C127.399 188.328 127.399 188.327 127.399 188.327C127.399 188.326 127.4 188.325 127.4 188.325C127.4 188.324 127.4 188.324 127.4 188.323C127.401 188.322 127.401 188.322 127.401 188.321C127.401 188.32 127.402 188.32 127.402 188.319C127.402 188.318 127.402 188.318 127.403 188.317C127.403 188.317 127.403 188.316 127.403 188.315C127.403 188.315 127.404 188.314 127.404 188.313C127.404 188.313 127.404 188.312 127.405 188.311C127.405 188.311 127.405 188.31 127.405 188.309C127.406 188.309 127.406 188.308 127.406 188.307C127.406 188.307 127.407 188.306 127.407 188.305C127.407 188.305 127.407 188.304 127.408 188.303C127.408 188.303 127.408 188.302 127.408 188.301C127.409 188.301 127.409 188.3 127.409 188.299C127.409 188.298 127.41 188.298 127.41 188.297C127.41 188.296 127.41 188.296 127.411 188.295C127.411 188.294 127.411 188.294 127.411 188.293C127.412 188.292 127.412 188.291 127.412 188.291C127.412 188.29 127.413 188.289 127.413 188.289C127.413 188.288 127.413 188.287 127.414 188.286C127.414 188.286 127.414 188.285 127.414 188.284C127.415 188.284 127.415 188.283 127.415 188.282C127.416 188.281 127.416 188.281 127.416 188.28C127.416 188.279 127.417 188.278 127.417 188.278C127.417 188.277 127.417 188.276 127.418 188.275C127.418 188.275 127.418 188.274 127.419 188.273C127.419 188.272 127.419 188.272 127.419 188.271C127.42 188.27 127.42 188.269 127.42 188.269C127.42 188.268 127.421 188.267 127.421 188.266C127.421 188.266 127.422 188.265 127.422 188.264C127.422 188.263 127.422 188.263 127.423 188.262C127.423 188.261 127.423 188.26 127.424 188.259C127.424 188.259 127.424 188.258 127.424 188.257C127.425 188.256 127.425 188.256 127.425 188.255C127.426 188.254 127.426 188.253 127.426 188.252C127.426 188.252 127.427 188.251 127.427 188.25C127.427 188.249 127.428 188.248 127.428 188.248C127.428 188.247 127.428 188.246 127.429 188.245C127.429 188.244 127.429 188.243 127.43 188.243C127.43 188.242 127.43 188.241 127.431 188.24C127.431 188.239 127.431 188.239 127.431 188.238C127.432 188.237 127.432 188.236 127.432 188.235C127.433 188.234 127.433 188.234 127.433 188.233C127.434 188.232 127.434 188.231 127.434 188.23C127.434 188.229 127.435 188.229 127.435 188.228C127.435 188.227 127.436 188.226 127.436 188.225C127.436 188.224 127.437 188.223 127.437 188.223C127.437 188.222 127.438 188.221 127.438 188.22C127.438 188.219 127.438 188.218 127.439 188.217C127.439 188.217 127.439 188.216 127.44 188.215C127.44 188.214 127.44 188.213 127.441 188.212C127.441 188.211 127.441 188.21 127.442 188.21C127.442 188.209 127.442 188.208 127.443 188.207C127.443 188.206 127.443 188.205 127.444 188.204C127.444 188.203 127.444 188.202 127.445 188.202C127.445 188.201 127.445 188.2 127.446 188.199C127.446 188.198 127.446 188.197 127.447 188.196C127.447 188.195 127.447 188.194 127.448 188.193C127.448 188.193 127.448 188.192 127.449 188.191C127.449 188.19 127.449 188.189 127.45 188.188C127.45 188.187 127.45 188.186 127.451 188.185C127.451 188.184 127.451 188.183 127.452 188.182C127.452 188.181 127.452 188.181 127.453 188.18C127.453 188.179 127.453 188.178 127.454 188.177C127.454 188.176 127.454 188.175 127.455 188.174C127.455 188.173 127.455 188.172 127.456 188.171C127.456 188.17 127.456 188.169 127.457 188.168C127.457 188.167 127.457 188.166 127.458 188.165C127.458 188.164 127.458 188.163 127.459 188.162C127.459 188.162 127.459 188.161 127.46 188.16C127.46 188.159 127.461 188.158 127.461 188.157C127.461 188.156 127.462 188.155 127.462 188.154C127.462 188.153 127.463 188.152 127.463 188.151C127.463 188.15 127.464 188.149 127.464 188.148C127.464 188.147 127.465 188.146 127.465 188.145C127.466 188.144 127.466 188.143 127.466 188.142C127.467 188.141 127.467 188.14 127.467 188.139C127.468 188.138 127.468 188.137 127.468 188.136C127.469 188.135 127.469 188.134 127.47 188.133C127.47 188.132 127.47 188.131 127.471 188.13C127.471 188.129 127.471 188.128 127.472 188.127C127.472 188.126 127.473 188.125 127.473 188.123C127.473 188.122 127.474 188.121 127.474 188.12C127.474 188.119 127.475 188.118 127.475 188.117C127.476 188.116 127.476 188.115 127.476 188.114C127.477 188.113 127.477 188.112 127.478 188.111C127.478 188.11 127.478 188.109 127.479 188.108C127.479 188.107 127.479 188.106 127.48 188.105C127.48 188.104 127.481 188.103 127.481 188.101C127.481 188.1 127.482 188.099 127.482 188.098C127.483 188.097 127.483 188.096 127.483 188.095C127.484 188.094 127.484 188.093 127.484 188.092C127.485 188.091 127.485 188.09 127.486 188.089C127.486 188.087 127.486 188.086 127.487 188.085C127.487 188.084 127.488 188.083 127.488 188.082C127.488 188.081 127.489 188.08 127.489 188.079C127.49 188.078 127.49 188.076 127.49 188.075C127.491 188.074 127.491 188.073 127.492 188.072C127.492 188.071 127.492 188.07 127.493 188.069C127.493 188.068 127.494 188.066 127.494 188.065C127.495 188.064 127.495 188.063 127.495 188.062C127.496 188.061 127.496 188.06 127.497 188.059C127.497 188.057 127.497 188.056 127.498 188.055C127.498 188.054 127.499 188.053 127.499 188.052C127.499 188.051 127.5 188.049 127.5 188.048C127.501 188.047 127.501 188.046 127.502 188.045C127.502 188.044 127.502 188.043 127.503 188.041C127.503 188.04 127.504 188.039 127.504 188.038C127.505 188.037 127.505 188.036 127.505 188.034C127.506 188.033 127.506 188.032 127.507 188.031C127.507 188.03 127.507 188.029 127.508 188.027C127.508 188.026 127.509 188.025 127.509 188.024C127.51 188.023 127.51 188.021 127.511 188.02C127.511 188.019 127.511 188.018 127.512 188.017C127.512 188.015 127.513 188.014 127.513 188.013C127.514 188.012 127.514 188.011 127.514 188.009C127.515 188.008 127.515 188.007 127.516 188.006C127.516 188.005 127.517 188.003 127.517 188.002C127.517 188.001 127.518 188 127.518 187.999C127.519 187.997 127.519 187.996 127.52 187.995C127.52 187.994 127.521 187.992 127.521 187.991C127.521 187.99 127.522 187.989 127.522 187.988C127.523 187.986 127.523 187.985 127.524 187.984C127.524 187.983 127.525 187.981 127.525 187.98C127.526 187.979 127.526 187.978 127.526 187.976C127.527 187.975 127.527 187.974 127.528 187.973C127.528 187.971 127.529 187.97 127.529 187.969C127.53 187.968 127.53 187.966 127.531 187.965C127.531 187.964 127.531 187.963 127.532 187.961C127.532 187.96 127.533 187.959 127.533 187.957C127.534 187.956 127.534 187.955 127.535 187.954C127.535 187.952 127.536 187.951 127.536 187.95C127.537 187.948 127.537 187.947 127.538 187.946C127.538 187.945 127.538 187.943 127.539 187.942C127.539 187.941 127.54 187.939 127.54 187.938C127.541 187.937 127.541 187.936 127.542 187.934C127.542 187.933 127.543 187.932 127.543 187.93C127.544 187.929 127.544 187.928 127.545 187.926C127.545 187.925 127.546 187.924 127.546 187.922C127.547 187.921 127.547 187.92 127.548 187.918C127.548 187.917 127.548 187.916 127.549 187.914C127.549 187.913 127.55 187.912 127.55 187.91C127.551 187.909 127.551 187.908 127.552 187.906C127.552 187.905 127.553 187.904 127.553 187.902C127.554 187.901 127.554 187.9 127.555 187.898C127.555 187.897 127.556 187.896 127.556 187.894C127.557 187.893 127.557 187.892 127.558 187.89C127.558 187.889 127.559 187.888 127.559 187.886C127.56 187.885 127.56 187.883 127.561 187.882C127.561 187.881 127.562 187.879 127.562 187.878C127.563 187.877 127.563 187.875 127.564 187.874C127.564 187.872 127.565 187.871 127.565 187.87C127.566 187.868 127.566 187.867 127.567 187.866C127.567 187.864 127.568 187.863 127.568 187.861C127.569 187.86 127.569 187.859 127.57 187.857C127.57 187.856 127.571 187.854 127.571 187.853C127.572 187.852 127.572 187.85 127.573 187.849C127.573 187.847 127.574 187.846 127.574 187.845C127.575 187.843 127.575 187.842 127.576 187.84C127.576 187.839 127.577 187.837 127.577 187.836C127.578 187.835 127.579 187.833 127.579 187.832C127.58 187.83 127.58 187.829 127.581 187.827C127.581 187.826 127.582 187.825 127.582 187.823C127.583 187.822 127.583 187.82 127.584 187.819C127.584 187.817 127.585 187.816 127.585 187.814C127.586 187.813 127.586 187.812 127.587 187.81C127.587 187.809 127.588 187.807 127.589 187.806C127.589 187.804 127.59 187.803 127.59 187.801C127.591 187.8 127.591 187.798 127.592 187.797C127.592 187.795 127.593 187.794 127.593 187.792C127.594 187.791 127.594 187.79 127.595 187.788C127.595 187.787 127.596 187.785 127.597 187.784C127.597 187.782 127.598 187.781 127.598 187.779C127.599 187.778 127.599 187.776 127.6 187.775C127.6 187.773 127.601 187.772 127.601 187.77C127.602 187.769 127.603 187.767 127.603 187.766C127.604 187.764 127.604 187.763 127.605 187.761C127.605 187.76 127.606 187.758 127.606 187.757C127.607 187.755 127.607 187.754 127.608 187.752C127.609 187.751 127.609 187.749 127.61 187.747C127.61 187.746 127.611 187.744 127.611 187.743C127.612 187.741 127.612 187.74 127.613 187.738C127.614 187.737 127.614 187.735 127.615 187.734C127.615 187.732 127.616 187.731 127.616 187.729C127.617 187.727 127.618 187.726 127.618 187.724C127.619 187.723 127.619 187.721 127.62 187.72C127.62 187.718 127.621 187.717 127.621 187.715C127.622 187.713 127.623 187.712 127.623 187.71C127.624 187.709 127.624 187.707 127.625 187.706C127.625 187.704 127.626 187.703 127.627 187.701C127.627 187.699 127.628 187.698 127.628 187.696C127.629 187.695 127.629 187.693 127.63 187.691C127.631 187.69 127.631 187.688 127.632 187.687C127.632 187.685 127.633 187.684 127.634 187.682C127.634 187.68 127.635 187.679 127.635 187.677C127.636 187.676 127.636 187.674 127.637 187.672C127.638 187.671 127.638 187.669 127.639 187.667C127.639 187.666 127.64 187.664 127.641 187.663C127.641 187.661 127.642 187.659 127.642 187.658C127.643 187.656 127.643 187.655 127.644 187.653C127.645 187.651 127.645 187.65 127.646 187.648C127.646 187.646 127.647 187.645 127.648 187.643C127.648 187.641 127.649 187.64 127.649 187.638C127.65 187.637 127.651 187.635 127.651 187.633C127.652 187.632 127.652 187.63 127.653 187.628C127.654 187.627 127.654 187.625 127.655 187.623C127.655 187.622 127.656 187.62 127.657 187.618C127.657 187.617 127.658 187.615 127.658 187.613C127.659 187.612 127.66 187.61 127.66 187.608C127.661 187.607 127.661 187.605 127.662 187.603C127.663 187.602 127.663 187.6 127.664 187.598C127.665 187.597 127.665 187.595 127.666 187.593C127.666 187.592 127.667 187.59 127.668 187.588C127.668 187.587 127.669 187.585 127.669 187.583C127.67 187.581 127.671 187.58 127.671 187.578C127.672 187.576 127.673 187.575 127.673 187.573C127.674 187.571 127.674 187.569 127.675 187.568C127.676 187.566 127.676 187.564 127.677 187.563C127.678 187.561 127.678 187.559 127.679 187.557C127.679 187.556 127.68 187.554 127.681 187.552C127.681 187.551 127.682 187.549 127.683 187.547C127.683 187.545 127.684 187.544 127.684 187.542C127.685 187.54 127.686 187.538 127.686 187.537C127.687 187.535 127.688 187.533 127.688 187.531C127.689 187.53 127.69 187.528 127.69 187.526C127.691 187.524 127.691 187.523 127.692 187.521C127.693 187.519 127.693 187.517 127.694 187.516C127.695 187.514 127.695 187.512 127.696 187.51C127.697 187.509 127.697 187.507 127.698 187.505C127.698 187.503 127.699 187.502 127.7 187.5C127.7 187.498 127.701 187.496 127.702 187.494C127.702 187.493 127.703 187.491 127.704 187.489C127.704 187.487 127.705 187.485 127.706 187.484C127.706 187.482 127.707 187.48 127.708 187.478C127.708 187.476 127.709 187.475 127.71 187.473C127.71 187.471 127.711 187.469 127.712 187.467C127.712 187.466 127.713 187.464 127.713 187.462C127.714 187.46 127.715 187.458 127.715 187.457C127.716 187.455 127.717 187.453 127.717 187.451C127.718 187.449 127.719 187.447 127.719 187.446C127.72 187.444 127.721 187.442 127.721 187.44C127.722 187.438 127.723 187.436 127.723 187.435C127.724 187.433 127.725 187.431 127.725 187.429C127.726 187.427 127.727 187.425 127.727 187.424C127.728 187.422 127.729 187.42 127.729 187.418C127.73 187.416 127.731 187.414 127.732 187.412C127.732 187.411 127.733 187.409 127.734 187.407C127.734 187.405 127.735 187.403 127.736 187.401C127.736 187.399 127.737 187.398 127.738 187.396C127.738 187.394 127.739 187.392 127.74 187.39C127.74 187.388 127.741 187.386 127.742 187.384C127.742 187.383 127.743 187.381 127.744 187.379C127.744 187.377 127.745 187.375 127.746 187.373C127.747 187.371 127.747 187.369 127.748 187.367C127.749 187.365 127.749 187.364 127.75 187.362C127.751 187.36 127.751 187.358 127.752 187.356C127.753 187.354 127.753 187.352 127.754 187.35C127.755 187.348 127.756 187.346 127.756 187.344C127.757 187.343 127.758 187.341 127.758 187.339C127.759 187.337 127.76 187.335 127.76 187.333C127.761 187.331 127.762 187.329 127.763 187.327C127.763 187.325 127.764 187.323 127.765 187.321C127.765 187.319 127.766 187.317 127.767 187.316C127.767 187.314 127.768 187.312 127.769 187.31C127.77 187.308 127.77 187.306 127.771 187.304C127.772 187.302 127.772 187.3 127.773 187.298C127.774 187.296 127.775 187.294 127.775 187.292C127.776 187.29 127.777 187.288 127.777 187.286C127.778 187.284 127.779 187.282 127.78 187.28C127.78 187.278 127.781 187.276 127.782 187.274C127.782 187.272 127.783 187.27 127.784 187.268C127.785 187.266 127.785 187.264 127.786 187.262C127.787 187.26 127.788 187.258 127.788 187.256C127.789 187.254 127.79 187.252 127.79 187.25C127.791 187.248 127.792 187.246 127.793 187.244C127.793 187.242 127.794 187.24 127.795 187.238C127.796 187.236 127.796 187.234 127.797 187.232C127.798 187.23 127.798 187.228 127.799 187.226C127.8 187.224 127.801 187.222 127.801 187.22C127.802 187.218 127.803 187.216 127.804 187.214C127.804 187.212 127.805 187.21 127.806 187.208C127.807 187.206 127.807 187.204 127.808 187.202C127.809 187.2 127.81 187.198 127.81 187.196C127.811 187.194 127.812 187.192 127.812 187.19C127.813 187.188 127.814 187.186 127.815 187.184C127.815 187.182 127.816 187.179 127.817 187.177C127.818 187.175 127.818 187.173 127.819 187.171C127.82 187.169 127.821 187.167 127.821 187.165C127.822 187.163 127.823 187.161 127.824 187.159C127.824 187.157 127.825 187.155 127.826 187.153C127.827 187.151 127.828 187.148 127.828 187.146C127.829 187.144 127.83 187.142 127.831 187.14C127.831 187.138 127.832 187.136 127.833 187.134C127.834 187.132 127.834 187.13 127.835 187.128C127.836 187.125 127.837 187.123 127.837 187.121C127.838 187.119 127.839 187.117 127.84 187.115C127.84 187.113 127.841 187.111 127.842 187.109C127.843 187.106 127.844 187.104 127.844 187.102C127.845 187.1 127.846 187.098 127.847 187.096C127.847 187.094 127.848 187.092 127.849 187.089C127.85 187.087 127.851 187.085 127.851 187.083C127.852 187.081 127.853 187.079 127.854 187.077C127.854 187.074 127.855 187.072 127.856 187.07C127.857 187.068 127.858 187.066 127.858 187.064C127.859 187.062 127.86 187.059 127.861 187.057C127.861 187.055 127.862 187.053 127.863 187.051C127.864 187.049 127.865 187.047 127.865 187.044C127.866 187.042 127.867 187.04 127.868 187.038C127.869 187.036 127.869 187.033 127.87 187.031C127.871 187.029 127.872 187.027 127.872 187.025C127.873 187.023 127.874 187.02 127.875 187.018C127.876 187.016 127.876 187.014 127.877 187.012C127.878 187.009 127.879 187.007 127.88 187.005C127.88 187.003 127.881 187.001 127.882 186.998C127.883 186.996 127.884 186.994 127.884 186.992C127.885 186.99 127.886 186.987 127.887 186.985C127.888 186.983 127.888 186.981 127.889 186.979C127.89 186.976 127.891 186.974 127.892 186.972C127.892 186.97 127.893 186.968 127.894 186.965C127.895 186.963 127.896 186.961 127.897 186.959C127.897 186.956 127.898 186.954 127.899 186.952C127.9 186.95 127.901 186.947 127.901 186.945C127.902 186.943 127.903 186.941 127.904 186.938C127.905 186.936 127.905 186.934 127.906 186.932C127.907 186.929 127.908 186.927 127.909 186.925C127.91 186.923 127.91 186.92 127.911 186.918C127.912 186.916 127.913 186.914 127.914 186.911C127.915 186.909 127.915 186.907 127.916 186.905C127.917 186.902 127.918 186.9 127.919 186.898C127.919 186.896 127.92 186.893 127.921 186.891C127.922 186.889 127.923 186.886 127.924 186.884C127.924 186.882 127.925 186.88 127.926 186.877C127.927 186.875 127.928 186.873 127.929 186.87C127.929 186.868 127.93 186.866 127.931 186.863C127.932 186.861 127.933 186.859 127.934 186.857C127.934 186.854 127.935 186.852 127.936 186.85C127.937 186.847 127.938 186.845 127.939 186.843C127.94 186.84 127.94 186.838 127.941 186.836C127.942 186.833 127.943 186.831 127.944 186.829C127.945 186.826 127.945 186.824 127.946 186.822C127.947 186.819 127.948 186.817 127.949 186.815C127.95 186.812 127.951 186.81 127.951 186.808C127.952 186.805 127.953 186.803 127.954 186.801C127.955 186.798 127.956 186.796 127.957 186.794C127.957 186.791 127.958 186.789 127.959 186.787C127.96 186.784 127.961 186.782 127.962 186.78C127.963 186.777 127.963 186.775 127.964 186.772C127.965 186.77 127.966 186.768 127.967 186.765C127.968 186.763 127.969 186.761 127.969 186.758C127.97 186.756 127.971 186.753 127.972 186.751C127.973 186.749 127.974 186.746 127.975 186.744C127.975 186.742 127.976 186.739 127.977 186.737C127.978 186.734 127.979 186.732 127.98 186.73C127.981 186.727 127.982 186.725 127.982 186.722C127.983 186.72 127.984 186.718 127.985 186.715C127.986 186.713 127.987 186.71 127.988 186.708C127.989 186.706 127.989 186.703 127.99 186.701C127.991 186.698 127.992 186.696 127.993 186.693C127.994 186.691 127.995 186.689 127.996 186.686C127.997 186.684 127.997 186.681 127.998 186.679C127.999 186.676 128 186.674 128.001 186.672C128.002 186.669 128.003 186.667 128.004 186.664C128.004 186.662 128.005 186.659 128.006 186.657C128.007 186.654 128.008 186.652 128.009 186.65C128.01 186.647 128.011 186.645 128.012 186.642C128.013 186.64 128.013 186.637 128.014 186.635C128.015 186.632 128.016 186.63 128.017 186.627C128.018 186.625 128.019 186.622 128.02 186.62C128.021 186.618 128.021 186.615 128.022 186.613C128.023 186.61 128.024 186.608 128.025 186.605C128.026 186.603 128.027 186.6 128.028 186.598C128.029 186.595 128.03 186.593 128.031 186.59C128.031 186.588 128.032 186.585 128.033 186.583C128.034 186.58 128.035 186.578 128.036 186.575C128.037 186.573 128.038 186.57 128.039 186.568C128.04 186.565 128.041 186.563 128.041 186.56C128.042 186.558 128.043 186.555 128.044 186.553C128.045 186.55 128.046 186.548 128.047 186.545C128.048 186.543 128.049 186.54 128.05 186.537C128.051 186.535 128.052 186.532 128.052 186.53C128.053 186.527 128.054 186.525 128.055 186.522C128.056 186.52 128.057 186.517 128.058 186.515C128.059 186.512 128.06 186.51 128.061 186.507C128.062 186.504 128.063 186.502 128.064 186.499C128.064 186.497 128.065 186.494 128.066 186.492C128.067 186.489 128.068 186.487 128.069 186.484C128.07 186.481 128.071 186.479 128.072 186.476C128.073 186.474 128.074 186.471 128.075 186.469C128.076 186.466 128.077 186.463 128.078 186.461L105.522 178.259ZM104.438 187.25C104.235 186.439 104.166 185.774 104.139 185.37C104.11 184.945 104.114 184.612 104.121 184.407C104.129 184.194 104.143 184.038 104.152 183.955C104.16 183.869 104.168 183.821 104.168 183.82C104.168 183.817 104.164 183.844 104.153 183.903C104.142 183.962 104.126 184.044 104.104 184.151C104.057 184.369 103.991 184.659 103.898 185.03L127.182 190.85C127.465 189.718 127.731 188.521 127.902 187.38C127.982 186.85 128.427 184.249 127.722 181.43L104.438 187.25ZM103.945 184.848C103.591 186.177 103.256 187.081 102.996 187.654L124.844 197.586C125.784 195.519 126.529 193.303 127.135 191.032L103.945 184.848ZM102.249 189.829C100.738 196.15 99.859 202.686 99.5896 209.42L123.57 210.38C123.781 205.114 124.462 200.13 125.591 195.411L102.249 189.829ZM99.59 209.411C99.3228 215.956 99.6404 222.098 100.679 227.734L124.281 223.386C123.64 219.902 123.357 215.604 123.57 210.389L99.59 209.411ZM100.737 228.032C101.834 233.243 103.813 239.264 108.135 243.585L125.105 226.615C125.582 227.091 125.536 227.263 125.243 226.588C124.963 225.943 124.589 224.828 124.223 223.088L100.737 228.032ZM109.789 244.966C114.658 248.337 120.132 248.671 124.541 248.07L121.299 224.29C120.901 224.344 120.979 224.282 121.393 224.353C121.854 224.432 122.624 224.661 123.451 225.234L109.789 244.966ZM124.472 248.079C128.407 247.566 132.456 246.427 136.536 244.88L128.024 222.44C125.144 223.533 122.953 224.074 121.368 224.281L124.472 248.079ZM136.536 244.88C140.198 243.491 143.91 241.98 147.671 240.351L138.129 218.329C134.69 219.82 131.322 221.189 128.024 222.44L136.536 244.88ZM147.515 240.417C150.873 239.018 154.041 237.442 156.994 235.67L144.646 215.09C142.799 216.198 140.687 217.262 138.285 218.263L147.515 240.417ZM156.994 235.67C159.65 234.076 162.207 232.356 164.248 230.52L148.192 212.68C147.833 213.004 146.79 213.804 144.646 215.09L156.994 235.67ZM163.42 231.2C163.647 231.029 164.188 230.673 165.187 230.173L154.453 208.707C152.572 209.647 150.713 210.731 149.02 212L163.42 231.2ZM165.509 230.006C165.805 229.846 165.832 229.862 165.618 229.93C165.417 229.994 164.767 230.18 163.78 230.18V206.18C159.829 206.18 156.445 207.628 154.131 208.874L165.509 230.006ZM167.816 229.481C168.529 229.226 168.758 229.17 168.67 229.192C168.655 229.196 168.215 229.31 167.539 229.378C167.198 229.412 166.534 229.462 165.681 229.401C164.958 229.35 163.242 229.168 161.293 228.193L172.027 206.727C170.018 205.722 168.219 205.522 167.391 205.462C166.434 205.394 165.642 205.448 165.151 205.497C164.175 205.595 163.345 205.784 162.85 205.908C161.802 206.17 160.711 206.534 159.744 206.879L167.816 229.481ZM161.293 228.193C158.443 226.768 156.956 224.609 156.283 223.375C155.601 222.124 155.326 221.055 155.216 220.558C155.091 219.997 155.05 219.579 155.036 219.396C155.027 219.289 155.023 219.209 155.022 219.16C155.02 219.111 155.02 219.084 155.02 219.08H179.02C179.02 218.263 178.983 216.878 178.644 215.352C178.474 214.585 178.124 213.298 177.352 211.883C176.589 210.483 174.997 208.212 172.027 206.727L161.293 228.193ZM155.02 219.08C155.02 217.591 155.45 216.593 155.637 216.231C155.808 215.899 155.837 215.973 155.402 216.436L172.878 232.884C175.583 230.011 179.02 225.304 179.02 219.08H155.02ZM155.142 216.721C154.356 217.611 153.087 218.7 151.074 219.875L163.166 240.605C166.913 238.42 170.324 235.789 173.138 232.599L155.142 216.721ZM148.635 221.755C148.34 222.05 147.691 222.615 146.509 223.434L160.171 243.166C162.109 241.825 163.98 240.35 165.605 238.725L148.635 221.755ZM146.509 223.434C145.759 223.953 145.073 224.295 144.444 224.519L152.516 247.121C155.247 246.145 157.801 244.807 160.171 243.166L146.509 223.434ZM141.207 226.275C139.484 227.588 137.096 229.048 133.893 230.598L144.347 252.202C148.584 250.152 152.436 247.892 155.753 245.365L141.207 226.275ZM133.893 230.598C130.882 232.055 127.876 233.147 124.87 233.898L130.69 257.182C135.364 256.013 139.918 254.345 144.347 252.202L133.893 230.598ZM124.781 233.921C122.428 234.528 120.834 234.497 119.786 234.296L115.254 257.864C120.446 258.863 125.692 258.472 130.779 257.159L124.781 233.921ZM198.282 242.66L205.02 232.73L204.784 232.57L204.54 232.421L198.282 242.66ZM192.522 237.44L182.99 244.729L183.02 244.768L183.05 244.807L192.522 237.44ZM188.742 230.6L177.307 234.238L177.409 234.558L177.528 234.872L188.742 230.6ZM187.482 222.86H199.482V222.57L199.468 222.28L187.482 222.86ZM188.562 200.36L200.442 202.057L200.444 202.044L200.445 202.031L188.562 200.36ZM193.422 177.86L181.92 174.44L181.916 174.452L181.913 174.464L193.422 177.86ZM197.922 164.18L186.722 159.872L186.674 159.998L186.628 160.126L197.922 164.18ZM208.002 141.14L197.475 135.38L197.423 135.475L197.372 135.572L208.002 141.14ZM219.162 125.48L227.773 133.838L227.834 133.775L227.893 133.712L219.162 125.48ZM228.162 117.38L234.247 127.723L234.292 127.697L234.336 127.67L228.162 117.38ZM233.202 115.22L236.997 126.604L237.175 126.545L237.351 126.48L233.202 115.22ZM240.762 113.42L239.274 101.513L239.242 101.517L239.21 101.521L240.762 113.42ZM249.582 113.96L246.782 125.629L247.048 125.692L247.316 125.744L249.582 113.96ZM258.402 116.66L253.618 127.665L253.822 127.754L254.03 127.835L258.402 116.66ZM263.982 119.54L273.687 112.482L272.896 111.395L271.884 110.509L263.982 119.54ZM266.502 123.14L256.518 129.796L256.954 130.45L257.471 131.042L266.502 123.14ZM267.942 126.74L255.984 127.737L256.004 127.983L256.035 128.228L267.942 126.74ZM267.042 130.34L256.309 124.973L256.309 124.973L267.042 130.34ZM264.162 133.4L258.796 122.667L258.563 122.783L258.335 122.91L264.162 133.4ZM260.922 132.5L251.092 139.382L251.512 139.982L252.003 140.528L260.922 132.5ZM255.882 127.82L250.516 138.553L250.831 138.711L251.155 138.85L255.882 127.82ZM250.482 125.12L244.736 135.655L244.924 135.757L245.116 135.853L250.482 125.12ZM237.882 125.12L240.793 136.762L241.063 136.694L241.331 136.614L237.882 125.12ZM231.762 128.36L239.79 137.28L239.859 137.217L239.928 137.154L231.762 128.36ZM227.082 133.4L217.903 125.67L217.883 125.694L217.864 125.718L227.082 133.4ZM221.682 140.6L231.447 147.575L231.523 147.468L231.597 147.36L221.682 140.6ZM217.362 147.98L228.005 153.523L228.164 153.218L228.305 152.904L217.362 147.98ZM209.262 165.44L220.339 170.055L220.356 170.015L220.373 169.975L209.262 165.44ZM203.322 184.16L191.633 181.446L191.61 181.546L191.589 181.646L203.322 184.16ZM201.702 191.54L213.417 194.143L201.702 191.54ZM199.722 201.44L187.909 199.331L187.878 199.506L187.852 199.681L199.722 201.44ZM198.642 209.36L210.553 210.818L210.557 210.79L210.56 210.762L198.642 209.36ZM198.282 224.84L210.213 223.55L198.282 224.84ZM203.142 233.84L197.238 244.287L197.332 244.34L197.427 244.392L203.142 233.84ZM216.822 232.58L214.766 220.757L213.61 220.959L212.515 221.38L216.822 232.58ZM225.642 228.8L232.209 238.844L232.342 238.757L232.473 238.666L225.642 228.8ZM234.642 220.88L225.837 212.727L225.831 212.734L225.825 212.741L234.642 220.88ZM242.202 210.62L252.643 216.536L252.832 216.201L253 215.855L242.202 210.62ZM247.242 199.1L236.176 194.459L236.112 194.613L236.052 194.768L247.242 199.1ZM245.982 186.5L245.335 198.483L245.958 198.516L246.582 198.485L245.982 186.5ZM235.182 186.5L234.143 174.545L234.119 174.547L234.096 174.549L235.182 186.5ZM227.802 185.6L217.678 192.043L219.853 195.46L223.654 196.86L227.802 185.6ZM226.542 181.64L214.592 180.554L214.542 181.096V181.64H226.542ZM228.702 177.68L223.336 166.947L221.594 167.818L220.217 169.195L228.702 177.68ZM235.182 176.42L236.103 188.385L236.331 188.367L236.558 188.341L235.182 176.42ZM245.262 176.24L244.464 188.213L244.477 188.214L244.49 188.215L245.262 176.24ZM254.982 178.58L249.805 189.406L250.053 189.524L250.307 189.632L254.982 178.58ZM260.382 185.6L248.503 187.297L248.533 187.504L248.569 187.709L260.382 185.6ZM260.382 196.4L272.189 198.547L272.215 198.4L272.238 198.253L260.382 196.4ZM256.782 205.94L246.119 200.436L246.048 200.574L245.98 200.713L256.782 205.94ZM250.302 217.82L260.217 224.58L260.413 224.292L260.592 223.994L250.302 217.82ZM242.922 226.46L251.24 235.11L251.324 235.028L251.408 234.945L242.922 226.46ZM233.382 234.74L226.015 225.268L225.928 225.335L225.842 225.405L233.382 234.74ZM225.462 239.96L220.589 228.994L220.45 229.056L220.314 229.121L225.462 239.96ZM210.702 244.64L208.73 232.803L208.566 232.83L208.404 232.862L210.702 244.64ZM204.54 232.421C203.713 231.915 202.857 231.182 201.995 230.073L183.05 244.807C185.547 248.018 188.532 250.765 192.025 252.899L204.54 232.421ZM202.055 230.151C201.232 229.075 200.525 227.821 199.956 226.328L177.528 234.872C178.88 238.419 180.692 241.725 182.99 244.729L202.055 230.151ZM200.177 226.962C199.675 225.382 199.482 224.029 199.482 222.86H175.482C175.482 226.731 176.13 230.538 177.307 234.238L200.177 226.962ZM199.468 222.28C199.146 215.62 199.467 208.882 200.442 202.057L176.683 198.663C175.498 206.958 175.099 215.22 175.496 223.44L199.468 222.28ZM200.445 202.031C201.445 194.925 202.941 188.002 204.932 181.256L181.913 174.464C179.584 182.358 177.84 190.435 176.679 198.689L200.445 202.031ZM204.925 181.28C206.177 177.068 207.606 172.72 209.217 168.234L186.628 160.126C184.878 165 183.308 169.772 181.92 174.44L204.925 181.28ZM209.122 168.488C210.861 163.966 212.588 159.767 214.301 155.884L192.343 146.196C190.456 150.473 188.583 155.034 186.722 159.872L209.122 168.488ZM214.301 155.884C216.046 151.928 217.486 148.897 218.632 146.708L197.372 135.572C195.879 138.423 194.198 141.992 192.343 146.196L214.301 155.884ZM218.529 146.9C221.626 141.242 224.739 136.963 227.773 133.838L210.551 117.122C205.665 122.157 201.339 128.318 197.475 135.38L218.529 146.9ZM227.893 133.712C229.735 131.759 231.232 130.284 232.41 129.225C232.994 128.699 233.453 128.317 233.796 128.052C234.152 127.776 234.294 127.695 234.247 127.723L222.078 107.037C218.405 109.198 214.372 113.069 210.431 117.248L227.893 133.712ZM234.336 127.67C234.335 127.67 234.35 127.662 234.381 127.645C234.412 127.628 234.458 127.604 234.519 127.573C234.643 127.511 234.817 127.429 235.049 127.33C235.52 127.128 236.16 126.883 236.997 126.604L229.408 103.836C226.865 104.683 224.258 105.729 221.988 107.09L234.336 127.67ZM237.351 126.48C238.681 125.99 240.315 125.58 242.314 125.319L239.21 101.521C235.689 101.98 232.284 102.77 229.054 103.96L237.351 126.48ZM242.251 125.327C243.61 125.157 245.096 125.224 246.782 125.629L252.383 102.291C248.068 101.256 243.675 100.963 239.274 101.513L242.251 125.327ZM247.316 125.744C249.619 126.187 251.71 126.835 253.618 127.665L263.187 105.655C259.575 104.085 255.786 102.933 251.849 102.176L247.316 125.744ZM254.03 127.835C255.168 128.281 255.918 128.623 256.364 128.853C256.58 128.965 256.659 129.016 256.637 129.003C256.628 128.997 256.409 128.858 256.08 128.571L271.884 110.509C269.201 108.161 265.568 106.578 262.775 105.485L254.03 127.835ZM254.278 126.598C255.165 127.818 255.908 128.881 256.518 129.796L276.487 116.484C275.657 115.239 274.72 113.902 273.687 112.482L254.278 126.598ZM257.471 131.042C256.986 130.488 256.608 129.859 256.351 129.217C256.099 128.588 256.011 128.066 255.984 127.737L279.901 125.743C279.597 122.102 278.282 118.379 275.533 115.238L257.471 131.042ZM256.035 128.228C255.868 126.892 256.052 125.904 256.166 125.45C256.28 124.99 256.388 124.816 256.309 124.973L277.775 135.707C278.922 133.413 280.4 129.655 279.85 125.252L256.035 128.228ZM256.309 124.973C256.395 124.802 256.614 124.417 257.044 123.961C257.488 123.488 258.078 123.026 258.796 122.667L269.529 144.133C273.487 142.154 276.133 138.991 277.775 135.707L256.309 124.973ZM258.335 122.91C260.241 121.851 262.933 121.279 265.754 122.063C268.181 122.737 269.492 124.084 269.842 124.472L252.003 140.528C253.432 142.116 255.823 144.213 259.331 145.187C263.232 146.271 267.003 145.549 269.99 143.89L258.335 122.91ZM270.753 125.618C268.492 122.389 265.234 118.772 260.609 116.79L251.155 138.85C250.799 138.697 250.549 138.546 250.404 138.447C250.261 138.35 250.207 138.296 250.237 138.324C250.267 138.351 250.36 138.442 250.512 138.621C250.664 138.8 250.858 139.048 251.092 139.382L270.753 125.618ZM261.249 117.087C259.569 116.247 257.769 115.347 255.849 114.387L245.116 135.853C247.036 136.813 248.836 137.713 250.516 138.553L261.249 117.087ZM256.229 114.585C252.396 112.495 248.234 112.04 244.902 112.04V136.04C245.205 136.04 245.432 136.051 245.591 136.065C245.75 136.078 245.821 136.092 245.817 136.091C245.814 136.091 245.711 136.071 245.532 136.01C245.352 135.949 245.076 135.84 244.736 135.655L256.229 114.585ZM244.902 112.04C241.345 112.04 237.843 112.603 234.434 113.626L241.331 136.614C242.722 136.197 243.9 136.04 244.902 136.04V112.04ZM234.972 113.478C230.768 114.529 226.876 116.521 223.597 119.566L239.928 137.154C240.008 137.079 240.197 136.911 240.793 136.762L234.972 113.478ZM223.735 119.44C221.915 121.078 219.935 123.257 217.903 125.67L236.261 141.13C238.069 138.983 239.209 137.802 239.79 137.28L223.735 119.44ZM217.864 125.718C215.786 128.21 213.756 130.924 211.768 133.84L231.597 147.36C233.209 144.996 234.778 142.91 236.301 141.082L217.864 125.718ZM211.918 133.625C209.736 136.679 207.874 139.822 206.419 143.056L228.305 152.904C229.01 151.338 230.028 149.561 231.447 147.575L211.918 133.625ZM206.719 142.437C203.552 148.518 200.695 154.674 198.152 160.905L220.373 169.975C222.629 164.446 225.173 158.962 228.005 153.523L206.719 142.437ZM198.185 160.825C195.504 167.261 193.328 174.144 191.633 181.446L215.012 186.874C216.436 180.736 218.221 175.139 220.339 170.055L198.185 160.825ZM191.589 181.646C191.238 183.28 190.706 185.705 189.988 188.937L213.417 194.143C214.138 190.895 214.686 188.4 215.056 186.674L191.589 181.646ZM189.988 188.937C189.231 192.345 188.538 195.81 187.909 199.331L211.535 203.549C212.107 200.35 212.734 197.215 213.417 194.143L189.988 188.937ZM187.852 199.681C187.363 202.979 186.984 205.751 186.725 207.958L210.56 210.762C210.78 208.889 211.121 206.381 211.593 203.199L187.852 199.681ZM186.731 207.902C185.933 214.417 185.747 220.535 186.352 226.13L210.213 223.55C209.858 220.265 209.911 216.063 210.553 210.818L186.731 207.902ZM186.352 226.13C187.066 232.732 189.867 240.121 197.238 244.287L209.047 223.393C209.37 223.576 209.678 223.814 209.94 224.087C210.199 224.356 210.347 224.59 210.416 224.718C210.535 224.938 210.335 224.68 210.213 223.55L186.352 226.13ZM197.427 244.392C201.628 246.667 206.088 246.988 209.823 246.644C213.579 246.298 217.407 245.212 221.13 243.78L212.515 221.38C209.997 222.348 208.426 222.672 207.622 222.746C206.796 222.822 207.537 222.573 208.858 223.288L197.427 244.392ZM218.878 244.403C223.685 243.567 228.151 241.497 232.209 238.844L219.075 218.756C216.894 220.183 215.48 220.633 214.766 220.757L218.878 244.403ZM232.473 238.666C236.396 235.95 240.052 232.711 243.46 229.019L225.825 212.741C223.472 215.289 221.128 217.33 218.812 218.934L232.473 238.666ZM243.447 229.033C247.035 225.158 250.116 220.994 252.643 216.536L231.762 204.704C230.208 207.446 228.25 210.122 225.837 212.727L243.447 229.033ZM253 215.855C255.049 211.629 256.863 207.488 258.433 203.432L236.052 194.768C234.742 198.152 233.196 201.691 231.405 205.385L253 215.855ZM258.309 203.741C260.122 199.417 261.582 194.641 261.582 189.92H237.582C237.582 189.863 237.585 190.204 237.369 191.051C237.158 191.878 236.787 193.002 236.176 194.459L258.309 203.741ZM261.582 189.92C261.582 186.925 260.833 182.257 256.947 178.565C253.064 174.876 248.368 174.366 245.383 174.515L246.582 198.485C245.996 198.514 243.1 198.514 240.417 195.965C237.731 193.413 237.582 190.515 237.582 189.92H261.582ZM246.63 174.517C241.92 174.263 237.695 174.236 234.143 174.545L236.222 198.455C238.19 198.284 241.164 198.257 245.335 198.483L246.63 174.517ZM234.096 174.549C233.067 174.643 232.411 174.509 231.951 174.34L223.654 196.86C227.754 198.371 232.018 198.837 236.269 198.451L234.096 174.549ZM237.926 179.157C238.081 179.401 238.542 180.284 238.542 181.64H214.542C214.542 185.636 215.843 189.159 217.678 192.043L237.926 179.157ZM238.493 182.726C238.273 185.153 237.053 186.3 237.188 186.165L220.217 169.195C217.712 171.7 215.052 175.487 214.592 180.554L238.493 182.726ZM234.069 188.413C233.613 188.641 233.31 188.734 233.268 188.746C233.211 188.764 233.28 188.74 233.513 188.694C233.996 188.6 234.828 188.483 236.103 188.385L234.262 164.455C231.117 164.697 226.836 165.197 223.336 166.947L234.069 188.413ZM236.558 188.341C238.859 188.075 241.484 188.015 244.464 188.213L246.061 164.267C241.84 163.985 237.745 164.045 233.807 164.499L236.558 188.341ZM244.49 188.215C247.006 188.377 248.692 188.873 249.805 189.406L260.16 167.754C255.752 165.647 250.959 164.583 246.035 164.265L244.49 188.215ZM250.307 189.632C250.244 189.605 249.7 189.342 249.161 188.642C248.623 187.942 248.511 187.353 248.503 187.297L272.262 183.903C271.188 176.387 266.662 170.492 259.658 167.528L250.307 189.632ZM248.569 187.709C248.905 189.593 248.949 191.842 248.526 194.547L272.238 198.253C273.016 193.278 273.059 188.327 272.195 183.491L248.569 187.709ZM248.576 194.253C248.393 195.261 247.763 197.252 246.119 200.436L267.446 211.444C269.642 207.188 271.412 202.819 272.189 198.547L248.576 194.253ZM245.98 200.713C244.362 204.057 242.38 207.699 240.012 211.646L260.592 223.994C263.264 219.541 265.602 215.263 267.584 211.167L245.98 200.713ZM240.388 211.06C239.134 212.898 237.212 215.2 234.437 217.975L251.408 234.945C254.873 231.48 257.871 228.022 260.217 224.58L240.388 211.06ZM234.605 217.81C231.771 220.535 228.907 223.019 226.015 225.268L240.75 244.212C244.338 241.421 247.834 238.385 251.24 235.11L234.605 217.81ZM225.842 225.405C223.055 227.656 221.357 228.653 220.589 228.994L230.336 250.926C233.888 249.347 237.469 246.864 240.922 244.075L225.842 225.405ZM220.314 229.121C216.48 230.942 212.626 232.154 208.73 232.803L212.675 256.477C218.858 255.446 224.844 253.538 230.611 250.799L220.314 229.121ZM208.404 232.862C205.841 233.362 205.142 232.813 205.02 232.73L191.544 252.59C198.143 257.067 205.724 257.838 213 256.418L208.404 232.862Z" fill="black" mask="url(#path-2-outside-1_303_46)"/>
</svg>